<mxfile host="app.diagrams.net" modified="2024-06-26T10:17:30.462Z" agent="Mozilla/5.0 (Windows NT 10.0; Win64; x64) AppleWebKit/537.36 (KHTML, like Gecko) Chrome/124.0.0.0 Safari/537.36 OPR/110.0.0.0" etag="OLcV-DbOrg72Ks8bPset" version="24.6.3" type="github">
  <diagram id="CQI6WvTyXqOD8P_kqG3j" name="Pagina-1">
    <mxGraphModel dx="6690" dy="1795" grid="1" gridSize="10" guides="1" tooltips="1" connect="1" arrows="1" fold="1" page="0" pageScale="1" pageWidth="827" pageHeight="1169" background="none" math="0" shadow="0">
      <root>
        <mxCell id="0" />
        <mxCell id="1" parent="0" />
        <mxCell id="node27" value="&lt;p style=&quot;margin:0px;margin-top:4px;text-align:center;&quot;&gt;&lt;b&gt;AchievementCard&lt;/b&gt;&lt;/p&gt;&lt;hr size=&quot;1&quot;&gt;&lt;p style=&quot;margin:0 0 0 4px;line-height:1.6;&quot;&gt;- frontFace : AchievementFrontFace&lt;/p&gt;&lt;p style=&quot;margin:0 0 0 4px;line-height:1.6;&quot;&gt;- backFace : EmptyCardFace&lt;/p&gt;&lt;hr size=&quot;1&quot;&gt;&lt;p style=&quot;margin:0 0 0 4px;line-height:1.6;&quot;&gt;+ getFace(face : Face): CardFace&lt;/p&gt;&lt;p style=&quot;margin:0 0 0 4px;line-height:1.6;&quot;&gt;+ getCornerCardFace(face : Face) : CornerCardFace&lt;/p&gt;&lt;p style=&quot;margin:0 0 0 4px;line-height:1.6;&quot;&gt;+ toString() : String&lt;/p&gt;" style="verticalAlign=top;align=left;overflow=fill;fontSize=14;fontFamily=Helvetica;html=1;rounded=0;shadow=0;comic=0;labelBackgroundColor=none;strokeWidth=1;fillColor=#dae8fc;strokeColor=#6c8ebf;" parent="1" vertex="1">
          <mxGeometry x="-160" y="2793" width="421" height="165" as="geometry" />
        </mxCell>
        <mxCell id="node3" value="&lt;p style=&quot;margin:0px;margin-top:4px;text-align:center;&quot;&gt;&lt;b&gt;AchievementDeck&lt;/b&gt;&lt;/p&gt;&lt;hr size=&quot;1&quot;&gt;&lt;p style=&quot;margin:0 0 0 4px;line-height:1.6;&quot;&gt;- cards : List&amp;lt;AchievementCard&lt;/p&gt;&lt;p style=&quot;margin:0 0 0 4px;line-height:1.6;&quot;&gt;- boardCards : Map&amp;lt;DeckPosition, AchievementCard&amp;gt;&lt;/p&gt;&lt;hr size=&quot;1&quot;&gt;&lt;p style=&quot;margin:0 0 0 4px;line-height:1.6;&quot;&gt;- createCards() : void&lt;br&gt;&lt;/p&gt;&lt;p style=&quot;margin:0 0 0 4px;line-height:1.6;&quot;&gt;+ AchievementDeck()&lt;/p&gt;&lt;p style=&quot;margin:0 0 0 4px;line-height:1.6;&quot;&gt;+ AchievementDeck(Boolean test)&lt;/p&gt;&lt;p style=&quot;margin:0 0 0 4px;line-height:1.6;&quot;&gt;+ shuffle() : void&lt;/p&gt;&lt;p style=&quot;margin:0 0 0 4px;line-height:1.6;&quot;&gt;+ moveCardToBoard(where_to : DeckPosition) : void&lt;/p&gt;&lt;p style=&quot;margin:0 0 0 4px;line-height:1.6;&quot;&gt;+getBoardCard() : Map&amp;lt;DeckPosition, AchievementCard&amp;gt;&lt;/p&gt;&lt;p style=&quot;margin:0 0 0 4px;line-height:1.6;&quot;&gt;+ isEmpty() : boolean&lt;/p&gt;&lt;p style=&quot;margin:0 0 0 4px;line-height:1.6;&quot;&gt;+ addCard(card : Card, position : DeckPosition) : void&lt;/p&gt;&lt;p style=&quot;margin:0 0 0 4px;line-height:1.6;&quot;&gt;+ getTopCardNoPop() : Card&lt;/p&gt;&lt;p style=&quot;margin:0 0 0 4px;line-height:1.6;&quot;&gt;+ getNumberOfCards() : int&amp;nbsp;&lt;/p&gt;" style="verticalAlign=top;align=left;overflow=fill;fontSize=14;fontFamily=Helvetica;html=1;rounded=0;shadow=0;comic=0;labelBackgroundColor=none;strokeWidth=1;fillColor=#ffe6cc;strokeColor=#d79b00;" parent="1" vertex="1">
          <mxGeometry x="1824" y="3178" width="366" height="324" as="geometry" />
        </mxCell>
        <mxCell id="node28" value="&lt;p style=&quot;margin:0px;margin-top:4px;text-align:center;&quot;&gt;&lt;b&gt;AchievementFrontFace&lt;/b&gt;&lt;/p&gt;&lt;hr size=&quot;1&quot;&gt;&lt;p style=&quot;margin:0 0 0 4px;line-height:1.6;&quot;&gt;- score: int&lt;br&gt;- scoreRequirements : Map&amp;lt;Symbol, Integer&amp;gt;&lt;/p&gt;&lt;hr size=&quot;1&quot;&gt;&lt;p style=&quot;margin:0 0 0 4px;line-height:1.6;&quot;&gt;+ AchievementFrontFace(imageURI : String, scoreRequirements : Map&amp;lt;Symbol, Integer&amp;gt;, score : int)&lt;br&gt;&lt;/p&gt;&lt;p style=&quot;margin:0 0 0 4px;line-height:1.6;&quot;&gt;+&amp;nbsp; scoreRequirements() : List&amp;lt;Symbol&amp;gt;&lt;br&gt;+ getScore() : int&lt;/p&gt;&lt;p style=&quot;margin: 0px 0px 0px 4px; line-height: 1.6;&quot;&gt;+ getCornerSymbols() : Map&amp;lt;CardCorners, Symbol&amp;gt;&lt;/p&gt;&lt;p style=&quot;margin: 0px 0px 0px 4px; line-height: 1.6;&quot;&gt;+ getCenterSymbols() : List&amp;lt;Symbol&amp;gt;&lt;/p&gt;&lt;p style=&quot;margin: 0px 0px 0px 4px; line-height: 1.6;&quot;&gt;+ getScoreRequirements() : Map&amp;lt;Symbol, Integer&amp;gt;&lt;/p&gt;&lt;p style=&quot;margin: 0px 0px 0px 4px; line-height: 1.6;&quot;&gt;+ getPlacementRequirements() : Map&amp;lt;Symbol, Integer&amp;gt;&lt;/p&gt;&lt;p style=&quot;margin: 0px 0px 0px 4px; line-height: 1.6;&quot;&gt;+ getXCoord() : int&lt;/p&gt;&lt;p style=&quot;margin: 0px 0px 0px 4px; line-height: 1.6;&quot;&gt;+ getYCoord() : int&lt;/p&gt;&lt;p style=&quot;margin: 0px 0px 0px 4px; line-height: 1.6;&quot;&gt;+ setPlacementTurn(placementTurn : int) : void&lt;/p&gt;&lt;p style=&quot;margin: 0px 0px 0px 4px; line-height: 1.6;&quot;&gt;+ setXCoord(xCoord : int) : void&lt;/p&gt;&lt;p style=&quot;margin: 0px 0px 0px 4px; line-height: 1.6;&quot;&gt;+ setYCoord(yCoord : int) : void&lt;br&gt;&lt;/p&gt;&lt;p style=&quot;margin: 0px 0px 0px 4px; line-height: 1.6;&quot;&gt;+ getPlacementTurn() : int&lt;/p&gt;&lt;p style=&quot;margin: 0px 0px 0px 4px; line-height: 1.6;&quot;&gt;+ getKingdom() : Symbol&lt;/p&gt;" style="verticalAlign=top;align=left;overflow=fill;fontSize=14;fontFamily=Helvetica;html=1;rounded=0;shadow=0;comic=0;labelBackgroundColor=none;strokeWidth=1;fillColor=#d5e8d4;strokeColor=#82b366;" parent="1" vertex="1">
          <mxGeometry x="-3240" y="1860" width="640" height="414" as="geometry" />
        </mxCell>
        <mxCell id="node41" value="&lt;p style=&quot;margin:0px;margin-top:4px;text-align:center;&quot;&gt;&lt;i&gt;&amp;lt;&amp;lt;interface&amp;gt;&amp;gt;&lt;/i&gt;&lt;br&gt;&lt;b&gt;Card&lt;/b&gt;&lt;/p&gt;&lt;hr size=&quot;1&quot;&gt;&lt;p style=&quot;margin:0 0 0 4px;line-height:1.6;&quot;&gt;+ getFace(face : Face): CardFace&lt;/p&gt;&lt;p style=&quot;margin:0 0 0 4px;line-height:1.6;&quot;&gt;+ getCornerFace( face : Face) : CornerCardFace&lt;/p&gt;" style="verticalAlign=top;align=left;overflow=fill;fontSize=14;fontFamily=Helvetica;html=1;rounded=0;shadow=0;comic=0;labelBackgroundColor=none;strokeWidth=1;fillColor=#dae8fc;strokeColor=#6c8ebf;" parent="1" vertex="1">
          <mxGeometry x="687" y="2680" width="316" height="110" as="geometry" />
        </mxCell>
        <mxCell id="node15" value="&lt;p style=&quot;margin:0px;margin-top:4px;text-align:center;&quot;&gt;&lt;i&gt;&amp;lt;&amp;lt;enumeration&amp;gt;&amp;gt;&lt;/i&gt;&lt;br&gt;&lt;b&gt;CardCorners&lt;/b&gt;&lt;/p&gt;&lt;hr size=&quot;1&quot;&gt;&lt;p style=&quot;margin:0 0 0 4px;line-height:1.6;&quot;&gt;+ TOPLEFT&lt;/p&gt;&lt;p style=&quot;margin:0 0 0 4px;line-height:1.6;&quot;&gt;+ TOPRIGHT&lt;/p&gt;&lt;p style=&quot;margin:0 0 0 4px;line-height:1.6;&quot;&gt;+ BOTTOMRIGHT&lt;/p&gt;&lt;p style=&quot;margin:0 0 0 4px;line-height:1.6;&quot;&gt;+ BOTTOMLEFT&lt;/p&gt;" style="verticalAlign=top;align=left;overflow=fill;fontSize=14;fontFamily=Helvetica;html=1;rounded=0;shadow=0;comic=0;labelBackgroundColor=none;strokeWidth=1;" parent="1" vertex="1">
          <mxGeometry x="1220" y="960" width="229" height="174" as="geometry" />
        </mxCell>
        <mxCell id="node31" value="&lt;p style=&quot;margin:0px;margin-top:4px;text-align:center;&quot;&gt;&lt;i&gt;&amp;lt;&amp;lt;interface&amp;gt;&amp;gt;&lt;/i&gt;&lt;br&gt;&lt;b&gt;CardFace&lt;/b&gt;&lt;/p&gt;&lt;hr size=&quot;1&quot;&gt;&lt;p style=&quot;margin:0 0 0 4px;line-height:1.6;&quot;&gt;+ getImageURI : String&lt;/p&gt;&lt;p style=&quot;margin:0 0 0 4px;line-height:1.6;&quot;&gt;+ getCornerSymbols() : Map&amp;lt;CardCorners, Symbol&amp;gt;&lt;/p&gt;&lt;p style=&quot;margin:0 0 0 4px;line-height:1.6;&quot;&gt;+ getCenterSymbols() : List&amp;lt;Symbol&amp;gt;&lt;/p&gt;&lt;p style=&quot;margin:0 0 0 4px;line-height:1.6;&quot;&gt;+ getScore() : int&lt;/p&gt;&lt;p style=&quot;margin:0 0 0 4px;line-height:1.6;&quot;&gt;+ getScoreRequirements() : Map&amp;lt;Symbol, Integer&amp;gt;&lt;/p&gt;&lt;p style=&quot;margin:0 0 0 4px;line-height:1.6;&quot;&gt;+ getPlacementRequirements() : Map&amp;lt;Symbol, Integer&amp;gt;&lt;/p&gt;&lt;p style=&quot;margin:0 0 0 4px;line-height:1.6;&quot;&gt;+ getXCoord() : int&lt;/p&gt;&lt;p style=&quot;margin:0 0 0 4px;line-height:1.6;&quot;&gt;+ getYCoord() : int&lt;/p&gt;&lt;p style=&quot;margin:0 0 0 4px;line-height:1.6;&quot;&gt;+ setPlacementTurn(placementTurn : int) : void&lt;/p&gt;&lt;p style=&quot;margin:0 0 0 4px;line-height:1.6;&quot;&gt;+ setXCoord(xCoord : int) : void&lt;/p&gt;&lt;p style=&quot;margin:0 0 0 4px;line-height:1.6;&quot;&gt;+ setYCoord(yCoord : int) : void&lt;br&gt;&lt;/p&gt;&lt;p style=&quot;margin:0 0 0 4px;line-height:1.6;&quot;&gt;+ getPlacementTurn() : int&lt;/p&gt;&lt;p style=&quot;margin:0 0 0 4px;line-height:1.6;&quot;&gt;+ getKingdom() : Symbol&lt;/p&gt;&lt;p style=&quot;margin:0 0 0 4px;line-height:1.6;&quot;&gt;&lt;br&gt;&lt;/p&gt;&lt;p style=&quot;margin:0 0 0 4px;line-height:1.6;&quot;&gt;&lt;br&gt;&lt;/p&gt;" style="verticalAlign=top;align=left;overflow=fill;fontSize=14;fontFamily=Helvetica;html=1;rounded=0;shadow=0;comic=0;labelBackgroundColor=none;strokeWidth=1;fillColor=#d5e8d4;strokeColor=#82b366;" parent="1" vertex="1">
          <mxGeometry x="-710" y="2440" width="430" height="350" as="geometry" />
        </mxCell>
        <mxCell id="node39" value="&lt;p style=&quot;margin:0px;margin-top:4px;text-align:center;&quot;&gt;&lt;b&gt;Chat&lt;/b&gt;&lt;/p&gt;&lt;hr size=&quot;1&quot;&gt;&lt;p style=&quot;margin:0 0 0 4px;line-height:1.6;&quot;&gt;&lt;/p&gt;&lt;p style=&quot;margin:0 0 0 4px;line-height:1.6;&quot;&gt;- messages : List&amp;lt;Message&amp;gt;&lt;/p&gt;&lt;hr size=&quot;1&quot;&gt;&lt;p style=&quot;margin:0 0 0 4px;line-height:1.6;&quot;&gt;+ Chat()&lt;/p&gt;&lt;p style=&quot;margin:0 0 0 4px;line-height:1.6;&quot;&gt;+ addMessage(message : Message) : void&lt;br&gt;+ addMessage(message : String, player : Player ) : void&lt;/p&gt;&lt;p style=&quot;margin:0 0 0 4px;line-height:1.6;&quot;&gt;+ addMessage(message : String, name : String ) : void&lt;br&gt;&lt;/p&gt;&lt;p style=&quot;margin:0 0 0 4px;line-height:1.6;&quot;&gt;+ getMessages() : List&amp;lt;Message&amp;gt;&lt;/p&gt;" style="verticalAlign=top;align=left;overflow=fill;fontSize=14;fontFamily=Helvetica;html=1;rounded=0;shadow=0;comic=0;labelBackgroundColor=none;strokeWidth=1;fillColor=#f8cecc;strokeColor=#b85450;" parent="1" vertex="1">
          <mxGeometry x="1426.25" y="1776" width="360" height="195" as="geometry" />
        </mxCell>
        <mxCell id="node16" value="&lt;p style=&quot;margin:0px;margin-top:4px;text-align:center;&quot;&gt;&lt;i&gt;&amp;lt;&amp;lt;enumeration&amp;gt;&amp;gt;&lt;/i&gt;&lt;br&gt;&lt;b&gt;Color&lt;/b&gt;&lt;/p&gt;&lt;hr size=&quot;1&quot;&gt;&lt;p style=&quot;margin:0 0 0 4px;line-height:1.6;&quot;&gt;+ RED&lt;/p&gt;&lt;p style=&quot;margin:0 0 0 4px;line-height:1.6;&quot;&gt;+ YELLOW&lt;/p&gt;&lt;p style=&quot;margin:0 0 0 4px;line-height:1.6;&quot;&gt;+ BLUE&lt;/p&gt;&lt;p style=&quot;margin:0 0 0 4px;line-height:1.6;&quot;&gt;+ GREEN&lt;/p&gt;" style="verticalAlign=top;align=left;overflow=fill;fontSize=14;fontFamily=Helvetica;html=1;rounded=0;shadow=0;comic=0;labelBackgroundColor=none;strokeWidth=1;" parent="1" vertex="1">
          <mxGeometry x="1260" y="809" width="180" height="141" as="geometry" />
        </mxCell>
        <mxCell id="node5" value="&lt;p style=&quot;margin:0px;margin-top:4px;text-align:center;&quot;&gt;&lt;b&gt;CornerCardFace&lt;/b&gt;&lt;/p&gt;&lt;hr size=&quot;1&quot;&gt;&lt;p style=&quot;margin:0 0 0 4px;line-height:1.6;&quot;&gt;&lt;/p&gt;&lt;p style=&quot;margin:0 0 0 4px;line-height:1.6;&quot;&gt;- cornerSymbols: Map&amp;lt;CardCorners, Symbol&amp;gt;&lt;/p&gt;&lt;p style=&quot;margin:0 0 0 4px;line-height:1.6;&quot;&gt;- placementTurn : int&amp;nbsp;&lt;br&gt;&lt;/p&gt;&lt;p style=&quot;margin:0 0 0 4px;line-height:1.6;&quot;&gt;- xCoord : int&lt;/p&gt;&lt;p style=&quot;margin:0 0 0 4px;line-height:1.6;&quot;&gt;- yCoord : int&lt;/p&gt;&lt;hr size=&quot;1&quot;&gt;&lt;p style=&quot;margin:0 0 0 4px;line-height:1.6;&quot;&gt;&lt;span style=&quot;background-color: initial;&quot;&gt;+ CornerCardFace(imageURI : String, cornerSymbols : Map&amp;lt;CardCorners, Symbol&amp;gt;)&lt;/span&gt;&lt;/p&gt;&lt;p style=&quot;margin: 0px 0px 0px 4px; line-height: 1.6;&quot;&gt;+ getScore() : int&lt;/p&gt;&lt;p style=&quot;margin: 0px 0px 0px 4px; line-height: 1.6;&quot;&gt;+ getCornerSymbols() : Map&amp;lt;CardCorners, Symbol&amp;gt;&lt;/p&gt;&lt;p style=&quot;margin: 0px 0px 0px 4px; line-height: 1.6;&quot;&gt;+ getCenterSymbols() : List&amp;lt;Symbol&amp;gt;&lt;/p&gt;&lt;p style=&quot;margin: 0px 0px 0px 4px; line-height: 1.6;&quot;&gt;+ getScoreRequirements() : Map&amp;lt;Symbol, Integer&amp;gt;&lt;/p&gt;&lt;p style=&quot;margin: 0px 0px 0px 4px; line-height: 1.6;&quot;&gt;+ getPlacementRequirements() : Map&amp;lt;Symbol, Integer&amp;gt;&lt;/p&gt;&lt;p style=&quot;margin: 0px 0px 0px 4px; line-height: 1.6;&quot;&gt;+ getXCoord() : int&lt;/p&gt;&lt;p style=&quot;margin: 0px 0px 0px 4px; line-height: 1.6;&quot;&gt;+ getYCoord() : int&lt;/p&gt;&lt;p style=&quot;margin: 0px 0px 0px 4px; line-height: 1.6;&quot;&gt;+ setPlacementTurn(placementTurn : int) : void&lt;/p&gt;&lt;p style=&quot;margin: 0px 0px 0px 4px; line-height: 1.6;&quot;&gt;+ setXCoord(xCoord : int) : void&lt;/p&gt;&lt;p style=&quot;margin: 0px 0px 0px 4px; line-height: 1.6;&quot;&gt;+ setYCoord(yCoord : int) : void&lt;br&gt;&lt;/p&gt;&lt;p style=&quot;margin: 0px 0px 0px 4px; line-height: 1.6;&quot;&gt;+ getPlacementTurn() : int&lt;/p&gt;&lt;p style=&quot;margin: 0px 0px 0px 4px; line-height: 1.6;&quot;&gt;+ getKingdom() : Symbol&lt;/p&gt;&lt;p style=&quot;margin:0 0 0 4px;line-height:1.6;&quot;&gt;&lt;br&gt;&lt;/p&gt;" style="verticalAlign=top;align=left;overflow=fill;fontSize=14;fontFamily=Helvetica;html=1;rounded=0;shadow=0;comic=0;labelBackgroundColor=none;strokeWidth=1;fillColor=#d5e8d4;strokeColor=#82b366;" parent="1" vertex="1">
          <mxGeometry x="-1513" y="2396" width="388" height="440" as="geometry" />
        </mxCell>
        <mxCell id="node12" value="&lt;p style=&quot;margin:0px;margin-top:4px;text-align:center;&quot;&gt;&lt;i&gt;&amp;lt;&amp;lt;enumeration&amp;gt;&amp;gt;&lt;/i&gt;&lt;br&gt;&lt;b&gt;DeckPosition&lt;/b&gt;&lt;/p&gt;&lt;hr size=&quot;1&quot;&gt;&lt;p style=&quot;margin:0 0 0 4px;line-height:1.6;&quot;&gt;+ DECK&lt;/p&gt;&lt;p style=&quot;margin:0 0 0 4px;line-height:1.6;&quot;&gt;+ FIRST_CARD&lt;/p&gt;&lt;p style=&quot;margin:0 0 0 4px;line-height:1.6;&quot;&gt;+ SECOND_CARD&lt;/p&gt;" style="verticalAlign=top;align=left;overflow=fill;fontSize=14;fontFamily=Helvetica;html=1;rounded=0;shadow=0;comic=0;labelBackgroundColor=none;strokeWidth=1;" parent="1" vertex="1">
          <mxGeometry x="1004" y="800" width="227" height="141" as="geometry" />
        </mxCell>
        <mxCell id="node33" value="&lt;p style=&quot;margin:0px;margin-top:4px;text-align:center;&quot;&gt;&lt;i&gt;&amp;lt;&amp;lt;interface&amp;gt;&amp;gt;&lt;/i&gt;&lt;br&gt;&lt;b&gt;Deckable&lt;/b&gt;&lt;/p&gt;&lt;hr size=&quot;1&quot;&gt;&lt;p style=&quot;margin:0 0 0 4px;line-height:1.6;&quot;&gt;+ addCard(card : Card, position : DeckPosition) : void&lt;br&gt;+ popCard(position :DeckPosition) : Card&lt;/p&gt;&lt;p style=&quot;margin:0 0 0 4px;line-height:1.6;&quot;&gt;+ getTopCardNoPop() : Card&lt;/p&gt;" style="verticalAlign=top;align=left;overflow=fill;fontSize=14;fontFamily=Helvetica;html=1;rounded=0;shadow=0;comic=0;labelBackgroundColor=none;strokeWidth=1;fillColor=#ffe6cc;strokeColor=#d79b00;" parent="1" vertex="1">
          <mxGeometry x="1420" y="2660" width="344.5" height="130" as="geometry" />
        </mxCell>
        <mxCell id="node0" value="&lt;p style=&quot;margin:0px;margin-top:4px;text-align:center;&quot;&gt;&lt;i&gt;&amp;lt;&amp;lt;enumeration&amp;gt;&amp;gt;&lt;/i&gt;&lt;br&gt;&lt;b&gt;Decks&lt;/b&gt;&lt;/p&gt;&lt;hr size=&quot;1&quot;&gt;&lt;p style=&quot;margin:0 0 0 4px;line-height:1.6;&quot;&gt;+ RESOURCE&lt;/p&gt;&lt;p style=&quot;margin:0 0 0 4px;line-height:1.6;&quot;&gt;+ GOLD&lt;/p&gt;&lt;p style=&quot;margin:0 0 0 4px;line-height:1.6;&quot;&gt;+ ACHIEVEMENT&lt;/p&gt;" style="verticalAlign=top;align=left;overflow=fill;fontSize=14;fontFamily=Helvetica;html=1;rounded=0;shadow=0;comic=0;labelBackgroundColor=none;strokeWidth=1;" parent="1" vertex="1">
          <mxGeometry x="1235" y="1149" width="185" height="141" as="geometry" />
        </mxCell>
        <mxCell id="node6" value="&lt;p style=&quot;margin:0px;margin-top:4px;text-align:center;&quot;&gt;&lt;b&gt;EmptyCardFace&lt;/b&gt;&lt;/p&gt;&lt;hr size=&quot;1&quot;&gt;&lt;p style=&quot;margin:0 0 0 4px;line-height:1.6;&quot;&gt;&lt;/p&gt;&lt;p style=&quot;margin:0 0 0 4px;line-height:1.6;&quot;&gt;- imageURI: String&lt;/p&gt;&lt;hr size=&quot;1&quot;&gt;&lt;p style=&quot;margin:0 0 0 4px;line-height:1.6;&quot;&gt;+ EmptyCardFace(imageURI : String)&lt;/p&gt;&lt;p style=&quot;margin:0 0 0 4px;line-height:1.6;&quot;&gt;+ getImageURI() : String&lt;/p&gt;&lt;p style=&quot;margin:0 0 0 4px;line-height:1.6;&quot;&gt;+ getScore() : int&lt;/p&gt;&lt;p style=&quot;margin:0 0 0 4px;line-height:1.6;&quot;&gt;+ getCornerSymbols() : Map&amp;lt;CardCorners, Symbol&amp;gt;&lt;/p&gt;&lt;p style=&quot;margin:0 0 0 4px;line-height:1.6;&quot;&gt;+ getCenterSymbols() : List&amp;lt;Symbol&amp;gt;&lt;/p&gt;&lt;p style=&quot;margin:0 0 0 4px;line-height:1.6;&quot;&gt;+ getScoreRequirements() : Map&amp;lt;Symbol, Integer&amp;gt;&lt;/p&gt;&lt;p style=&quot;margin:0 0 0 4px;line-height:1.6;&quot;&gt;+ getPlacementRequirements() : Map&amp;lt;Symbol, Integer&amp;gt;&lt;/p&gt;&lt;p style=&quot;margin: 0px 0px 0px 4px; line-height: 1.6;&quot;&gt;+ getXCoord() : int&lt;/p&gt;&lt;p style=&quot;margin: 0px 0px 0px 4px; line-height: 1.6;&quot;&gt;+ getYCoord() : int&lt;/p&gt;&lt;p style=&quot;margin: 0px 0px 0px 4px; line-height: 1.6;&quot;&gt;+ setPlacementTurn(placementTurn : int) : void&lt;/p&gt;&lt;p style=&quot;margin: 0px 0px 0px 4px; line-height: 1.6;&quot;&gt;+ setXCoord(xCoord : int) : void&lt;/p&gt;&lt;p style=&quot;margin: 0px 0px 0px 4px; line-height: 1.6;&quot;&gt;+ setYCoord(yCoord : int) : void&lt;br&gt;&lt;/p&gt;&lt;p style=&quot;margin: 0px 0px 0px 4px; line-height: 1.6;&quot;&gt;+ getPlacementTurn() : int&lt;/p&gt;&lt;p style=&quot;margin: 0px 0px 0px 4px; line-height: 1.6;&quot;&gt;+ getKingdom() : Symbol&lt;/p&gt;&lt;p style=&quot;margin:0 0 0 4px;line-height:1.6;&quot;&gt;&lt;br&gt;&lt;/p&gt;&lt;p style=&quot;margin:0 0 0 4px;line-height:1.6;&quot;&gt;&lt;br&gt;&lt;/p&gt;" style="verticalAlign=top;align=left;overflow=fill;fontSize=14;fontFamily=Helvetica;html=1;rounded=0;shadow=0;comic=0;labelBackgroundColor=none;strokeWidth=1;fillColor=#d5e8d4;strokeColor=#82b366;" parent="1" vertex="1">
          <mxGeometry x="-710" y="2920" width="360" height="386" as="geometry" />
        </mxCell>
        <mxCell id="node32" value="&lt;p style=&quot;margin:0px;margin-top:4px;text-align:center;&quot;&gt;&lt;i&gt;&amp;lt;&amp;lt;enumeration&amp;gt;&amp;gt;&lt;/i&gt;&lt;br&gt;&lt;b&gt;Face&lt;/b&gt;&lt;/p&gt;&lt;hr size=&quot;1&quot;&gt;&lt;p style=&quot;margin:0 0 0 4px;line-height:1.6;&quot;&gt;+ FRONTFACE&lt;/p&gt;&lt;p style=&quot;margin:0 0 0 4px;line-height:1.6;&quot;&gt;+ BACKFACE&lt;/p&gt;" style="verticalAlign=top;align=left;overflow=fill;fontSize=14;fontFamily=Helvetica;html=1;rounded=0;shadow=0;comic=0;labelBackgroundColor=none;strokeWidth=1;" parent="1" vertex="1">
          <mxGeometry x="757" y="1200" width="176" height="100" as="geometry" />
        </mxCell>
        <mxCell id="node13" value="&lt;p style=&quot;margin:0px;margin-top:4px;text-align:center;&quot;&gt;&lt;i&gt;&amp;lt;&amp;lt;interface&amp;gt;&amp;gt;&lt;/i&gt;&lt;br&gt;&lt;b&gt;GameModel&lt;/b&gt;&lt;/p&gt;&lt;hr size=&quot;1&quot;&gt;&lt;p style=&quot;margin:0 0 0 4px;line-height:1.6;&quot;&gt;+ nextTurn(): void&lt;/p&gt;&lt;p style=&quot;margin: 0px 0px 0px 4px; line-height: 1.6;&quot;&gt;+ getGoldDeck() : GoldDeck&lt;/p&gt;&lt;p style=&quot;margin: 0px 0px 0px 4px; line-height: 1.6;&quot;&gt;+ getResourceDeck() : ResourceDeck&lt;br&gt;+ getAchievementDeck() : AchievementDeck&lt;br&gt;+ getStartingCards() : List&amp;lt;StartingCard&amp;gt;&lt;/p&gt;&lt;p style=&quot;margin: 0px 0px 0px 4px; line-height: 1.6;&quot;&gt;+ getTurn() : int&lt;br&gt;&lt;/p&gt;&lt;p style=&quot;margin:0 0 0 4px;line-height:1.6;&quot;&gt;+ isEndGamePhase() : boolean&lt;/p&gt;&lt;p style=&quot;margin:0 0 0 4px;line-height:1.6;&quot;&gt;+ setEndGamePhase() : void&lt;br&gt;&lt;/p&gt;&lt;p style=&quot;margin:0 0 0 4px;line-height:1.6;&quot;&gt;+ getChat() : Chat&lt;br&gt;&lt;/p&gt;&lt;p style=&quot;margin:0 0 0 4px;line-height:1.6;&quot;&gt;+ addPlayer(player : Player) : void&lt;/p&gt;&lt;p style=&quot;margin:0 0 0 4px;line-height:1.6;&quot;&gt;+ removePlayer(player : Player) : void&lt;/p&gt;&lt;p style=&quot;margin:0 0 0 4px;line-height:1.6;&quot;&gt;+ getPlayerList() : List&amp;lt;Player&amp;gt;&lt;/p&gt;&lt;p style=&quot;margin:0 0 0 4px;line-height:1.6;&quot;&gt;+ setPlayerList(playerList : List&amp;lt;Player&amp;gt;) :&amp;nbsp; void&lt;/p&gt;&lt;p style=&quot;margin:0 0 0 4px;line-height:1.6;&quot;&gt;+ shufflePLayerList() : void&lt;/p&gt;&lt;p style=&quot;margin:0 0 0 4px;line-height:1.6;&quot;&gt;+ createGoldResourceDeck() : void&lt;/p&gt;&lt;p style=&quot;margin:0 0 0 4px;line-height:1.6;&quot;&gt;+ createStartingCards() : void&lt;/p&gt;&lt;p style=&quot;margin:0 0 0 4px;line-height:1.6;&quot;&gt;+ createAchievementDeck() : void&lt;/p&gt;&lt;p style=&quot;margin:0 0 0 4px;line-height:1.6;&quot;&gt;+ getActivePlayerIndex() : int&lt;/p&gt;&lt;p style=&quot;margin:0 0 0 4px;line-height:1.6;&quot;&gt;+ isLastRound() : boolean&lt;/p&gt;&lt;p style=&quot;margin:0 0 0 4px;line-height:1.6;&quot;&gt;+ setLastRound(lastRound : boolean) : void&lt;/p&gt;&lt;p style=&quot;margin:0 0 0 4px;line-height:1.6;&quot;&gt;+ setActivePlayerIndex (activePlayerIndex : int) : void&lt;/p&gt;" style="verticalAlign=top;align=left;overflow=fill;fontSize=14;fontFamily=Helvetica;html=1;rounded=0;shadow=0;comic=0;labelBackgroundColor=none;strokeWidth=1;" parent="1" vertex="1">
          <mxGeometry x="1890" y="860" width="344" height="530" as="geometry" />
        </mxCell>
        <mxCell id="node10" value="&lt;p style=&quot;margin:0px;margin-top:4px;text-align:center;&quot;&gt;&lt;b&gt;GameModelInstance&lt;/b&gt;&lt;/p&gt;&lt;hr size=&quot;1&quot;&gt;&lt;p style=&quot;margin:0 0 0 4px;line-height:1.6;&quot;&gt;- goldDeck : GoldDeck&lt;br&gt;- achievementDeck : AchievementDeck&lt;/p&gt;&lt;p style=&quot;margin:0 0 0 4px;line-height:1.6;&quot;&gt;- resourceDeck : ResourceDeck&lt;/p&gt;&lt;p style=&quot;margin:0 0 0 4px;line-height:1.6;&quot;&gt;- startingCards : List&amp;lt;StartingCard&amp;gt;&lt;br&gt;- chat: Chat&lt;br&gt;- isEndGamePhase : boolean&lt;br&gt;- turn : int&lt;/p&gt;&lt;p style=&quot;margin:0 0 0 4px;line-height:1.6;&quot;&gt;- playerList : List&amp;lt;PlayerInstance&amp;gt;&lt;/p&gt;&lt;p style=&quot;margin:0 0 0 4px;line-height:1.6;&quot;&gt;- activePlayerIndex : int&lt;/p&gt;&lt;p style=&quot;margin:0 0 0 4px;line-height:1.6;&quot;&gt;-&amp;nbsp; lastRound : boolean&lt;/p&gt;&lt;hr size=&quot;1&quot;&gt;&lt;p style=&quot;margin:0 0 0 4px;line-height:1.6;&quot;&gt;+ GameModelInstance()&amp;nbsp;&lt;br&gt;&lt;/p&gt;&lt;p style=&quot;margin:0 0 0 4px;line-height:1.6;&quot;&gt;+ getActivePlayerIndex() : int&lt;/p&gt;&lt;p style=&quot;margin:0 0 0 4px;line-height:1.6;&quot;&gt;+ isLastRound() : boolean&lt;/p&gt;&lt;p style=&quot;margin:0 0 0 4px;line-height:1.6;&quot;&gt;+ setLastRound(lastRound : boolean) : void&lt;/p&gt;&lt;p style=&quot;margin:0 0 0 4px;line-height:1.6;&quot;&gt;+ setActivePlayerIndex(activePlayerIndex : int) : void&lt;/p&gt;&lt;p style=&quot;margin:0 0 0 4px;line-height:1.6;&quot;&gt;+ generateStartingCards() : void&lt;/p&gt;&lt;p style=&quot;margin:0 0 0 4px;line-height:1.6;&quot;&gt;+ nextTurn(): void&lt;/p&gt;&lt;p style=&quot;margin:0 0 0 4px;line-height:1.6;&quot;&gt;+ setIsEndGame(): void&lt;/p&gt;&lt;p style=&quot;margin:0 0 0 4px;line-height:1.6;&quot;&gt;+ getGoldDeck() : GoldDeck&lt;/p&gt;&lt;p style=&quot;margin:0 0 0 4px;line-height:1.6;&quot;&gt;&lt;span style=&quot;background-color: initial;&quot;&gt;+ getResourceDeck() : ResourceDeck&lt;/span&gt;&lt;/p&gt;+ getAchievementDeck() : AchievementDeck&lt;p style=&quot;margin:0 0 0 4px;line-height:1.6;&quot;&gt;&lt;span style=&quot;background-color: initial;&quot;&gt;+ getTurn() : int&lt;/span&gt;&lt;br&gt;&lt;/p&gt;&lt;p style=&quot;margin:0 0 0 4px;line-height:1.6;&quot;&gt;+ getStartingCards() : List&amp;lt;StartingCard&amp;gt;&lt;br&gt;+ getChat() : Chat&lt;br&gt;+ isEndGamePhase() : boolean&lt;br&gt;&lt;/p&gt;&lt;p style=&quot;margin:0 0 0 4px;line-height:1.6;&quot;&gt;+ setEndGamePhase() : void&lt;/p&gt;&lt;p style=&quot;margin:0 0 0 4px;line-height:1.6;&quot;&gt;+ getPlayerList() : List&amp;lt;Player&amp;gt;&lt;/p&gt;&lt;p style=&quot;margin:0 0 0 4px;line-height:1.6;&quot;&gt;+ setPlayerList(playerList : List&amp;lt;Player&amp;gt;) : void&lt;/p&gt;&lt;p style=&quot;margin:0 0 0 4px;line-height:1.6;&quot;&gt;+ addPlayer(player : Player) : void&lt;/p&gt;&lt;p style=&quot;margin:0 0 0 4px;line-height:1.6;&quot;&gt;+ removePlayer( player : Player) : void&lt;/p&gt;&lt;p style=&quot;margin:0 0 0 4px;line-height:1.6;&quot;&gt;+ shufflePlayerList() : void&lt;/p&gt;&lt;p style=&quot;margin:0 0 0 4px;line-height:1.6;&quot;&gt;+ createGoldResourceDecks() : void&lt;/p&gt;&lt;p style=&quot;margin:0 0 0 4px;line-height:1.6;&quot;&gt;+ createstartingCards() : void&lt;/p&gt;&lt;p style=&quot;margin:0 0 0 4px;line-height:1.6;&quot;&gt;+ createAchievementDeck() :void&lt;/p&gt;" style="verticalAlign=top;align=left;overflow=fill;fontSize=14;fontFamily=Helvetica;html=1;rounded=0;shadow=0;comic=0;labelBackgroundColor=none;strokeWidth=1;" parent="1" vertex="1">
          <mxGeometry x="1900" y="1460" width="340" height="830" as="geometry" />
        </mxCell>
        <mxCell id="node40" value="&lt;p style=&quot;margin:0px;margin-top:4px;text-align:center;&quot;&gt;&lt;b&gt;GoldCard&lt;/b&gt;&lt;/p&gt;&lt;hr size=&quot;1&quot;&gt;&lt;p style=&quot;margin:0 0 0 4px;line-height:1.6;&quot;&gt;+ GoldCard(frontFace : GoldFrontFace, backFace :&amp;nbsp; RegularBackFace): &lt;/p&gt;&lt;hr size=&quot;1&quot;&gt;&lt;p style=&quot;margin:0 0 0 4px;line-height:1.6;&quot;&gt;+ getFace(Face face) : CardFace&lt;/p&gt;&lt;p style=&quot;margin:0 0 0 4px;line-height:1.6;&quot;&gt;+ getCornerFace(Face face) : CornerCardFace&lt;/p&gt;&lt;p style=&quot;margin:0 0 0 4px;line-height:1.6;&quot;&gt;+ toString() : String&lt;/p&gt;" style="verticalAlign=top;align=left;overflow=fill;fontSize=14;fontFamily=Helvetica;html=1;rounded=0;shadow=0;comic=0;labelBackgroundColor=none;strokeWidth=1;fillColor=#dae8fc;strokeColor=#6c8ebf;" parent="1" vertex="1">
          <mxGeometry x="-160" y="2150.5" width="327" height="150.5" as="geometry" />
        </mxCell>
        <mxCell id="node30" value="&lt;p style=&quot;margin:0px;margin-top:4px;text-align:center;&quot;&gt;&lt;b&gt;GoldDeck&lt;/b&gt;&lt;/p&gt;&lt;hr size=&quot;1&quot;&gt;&lt;p style=&quot;margin: 0px 0px 0px 4px; line-height: 1.6;&quot;&gt;- cards : List&amp;lt;GoldCard&amp;gt;&lt;/p&gt;&lt;p style=&quot;margin: 0px 0px 0px 4px; line-height: 1.6;&quot;&gt;- boardCards : Map&amp;lt;DeckPosition, GoldCard&amp;gt;&lt;/p&gt;&lt;hr size=&quot;1&quot;&gt;&lt;p style=&quot;margin:0 0 0 4px;line-height:1.6;&quot;&gt;- createCards(): void&lt;/p&gt;&lt;p style=&quot;margin:0 0 0 4px;line-height:1.6;&quot;&gt;+ GoldDeck()&lt;/p&gt;&lt;p style=&quot;margin:0 0 0 4px;line-height:1.6;&quot;&gt;+ GoldDeck(Boolean test)&lt;/p&gt;&lt;p style=&quot;margin:0 0 0 4px;line-height:1.6;&quot;&gt;+ shuffle() : void&lt;/p&gt;&lt;p style=&quot;margin:0 0 0 4px;line-height:1.6;&quot;&gt;+ moveCardToBoard(where_to : DeckPosition) : void&lt;/p&gt;&lt;p style=&quot;margin:0 0 0 4px;line-height:1.6;&quot;&gt;+ popCard(position : DeckPosition) : GoldCard&lt;/p&gt;&lt;p style=&quot;margin:0 0 0 4px;line-height:1.6;&quot;&gt;+ isEmpty() : boolean&lt;/p&gt;&lt;p style=&quot;margin:0 0 0 4px;line-height:1.6;&quot;&gt;+ addCard(card. Card, position : DeckPosition) : void&lt;/p&gt;&lt;p style=&quot;margin:0 0 0 4px;line-height:1.6;&quot;&gt;+ getTopCardNoPop() : GoldCard&lt;/p&gt;&lt;p style=&quot;margin:0 0 0 4px;line-height:1.6;&quot;&gt;+ getNumberOfCards() : int&lt;/p&gt;&lt;p style=&quot;margin:0 0 0 4px;line-height:1.6;&quot;&gt;&lt;br&gt;&lt;/p&gt;&lt;p style=&quot;margin:0 0 0 4px;line-height:1.6;&quot;&gt;&lt;br&gt;&lt;/p&gt;" style="verticalAlign=top;align=left;overflow=fill;fontSize=14;fontFamily=Helvetica;html=1;rounded=0;shadow=0;comic=0;labelBackgroundColor=none;strokeWidth=1;fillColor=#ffe6cc;strokeColor=#d79b00;" parent="1" vertex="1">
          <mxGeometry x="1395" y="3177" width="350" height="330" as="geometry" />
        </mxCell>
        <mxCell id="node37" value="&lt;p style=&quot;margin:0px;margin-top:4px;text-align:center;&quot;&gt;&lt;b&gt;GoldFrontFace&lt;/b&gt;&lt;/p&gt;&lt;hr size=&quot;1&quot;&gt;&lt;p style=&quot;margin:0 0 0 4px;line-height:1.6;&quot;&gt;- scoreRequirements : Map&amp;lt;Symbol, Integer&amp;gt;&lt;br&gt;- placementRequirements : Map&amp;lt;Symbol, Integer&amp;gt;&lt;/p&gt;&lt;hr size=&quot;1&quot;&gt;&lt;p style=&quot;margin: 0px 0px 0px 4px; line-height: 1.6;&quot;&gt;+ GoldFrontFace(imageURI : String, cornerSymbols : Map&amp;lt;CardCorners, Symbol&amp;gt;, score : int, placementRequirements: Map&amp;lt;Symbol, Integer&amp;gt;, scoreRequirements: Map&amp;lt;Symbol, Integer&amp;gt;, kingdom: Symbol)&lt;/p&gt;&lt;p style=&quot;margin: 0px 0px 0px 4px; line-height: 1.6;&quot;&gt;+ getScoreRequirements() : Map&amp;lt;Symbol, Integer&amp;gt;&lt;/p&gt;&lt;p style=&quot;margin: 0px 0px 0px 4px; line-height: 1.6;&quot;&gt;+ getPlacementRequirements() : Map&amp;lt;Symbol, Integer&amp;gt;&lt;/p&gt;&lt;div&gt;&lt;p style=&quot;margin: 0px 0px 0px 4px; line-height: 1.6;&quot;&gt;+ getCenterSymbols() : List&amp;lt;Symbol&amp;gt;&lt;/p&gt;&lt;p style=&quot;margin: 0px 0px 0px 4px; line-height: 1.6;&quot;&gt;+ toString() : String&lt;/p&gt;&lt;p style=&quot;margin: 0px 0px 0px 4px; line-height: 1.6;&quot;&gt;- placeReqForPrint() : String&lt;/p&gt;&lt;p style=&quot;margin: 0px 0px 0px 4px; line-height: 1.6;&quot;&gt;- scoreReqForPrint() : String&lt;/p&gt;&lt;/div&gt;&lt;div&gt;&lt;br&gt;&lt;/div&gt;" style="verticalAlign=top;align=left;overflow=fill;fontSize=14;fontFamily=Helvetica;html=1;rounded=0;shadow=0;comic=0;labelBackgroundColor=none;strokeWidth=1;fillColor=#d5e8d4;strokeColor=#82b366;" parent="1" vertex="1">
          <mxGeometry x="-3240" y="2450" width="1300" height="270" as="geometry" />
        </mxCell>
        <mxCell id="node26" value="&lt;p style=&quot;margin:0px;margin-top:4px;text-align:center;&quot;&gt;&lt;b&gt;Graph&lt;/b&gt;&lt;/p&gt;&lt;hr size=&quot;1&quot;&gt;&lt;p style=&quot;margin:0 0 0 4px;line-height:1.6;&quot;&gt;- containedCards : List&amp;lt;CornerCardFace&amp;gt;&lt;/p&gt;&lt;p style=&quot;margin:0 0 0 4px;line-height:1.6;&quot;&gt;- cardNeighbors : List&amp;lt;Map&amp;lt;CardCorners, CornerCardFace&amp;gt;&amp;gt;&lt;/p&gt;&lt;p style=&quot;margin:0 0 0 4px;line-height:1.6;&quot;&gt;- root : CornerCardFace&lt;/p&gt;&lt;hr size=&quot;1&quot;&gt;&lt;p style=&quot;margin:0 0 0 4px;line-height:1.6;&quot;&gt;+ Graph(CornerCardFace)&lt;/p&gt;&lt;p style=&quot;margin:0 0 0 4px;line-height:1.6;&quot;&gt;+ getNeighbors(CornercardFace) : Map&amp;lt;CardCorners, CornerCardFace&amp;gt;&amp;gt;&lt;br&gt;&lt;/p&gt;&lt;p style=&quot;margin:0 0 0 4px;line-height:1.6;&quot;&gt;+ getRoot : CornerCardFace&lt;/p&gt;&lt;p style=&quot;margin:0 0 0 4px;line-height:1.6;&quot;&gt;+ getCardsOver(CornerCardFace) : Map&amp;lt;CardCorners, CornerCardFace&amp;gt;&lt;/p&gt;&lt;p style=&quot;margin:0 0 0 4px;line-height:1.6;&quot;&gt;+ getCardsUnder(CornerCardFace) : Map&amp;lt;CardCorners, CornerCardFace&amp;gt;&lt;br&gt;&lt;/p&gt;&lt;p style=&quot;margin:0 0 0 4px;line-height:1.6;&quot;&gt;+ addCard(CornerCardFace, Map&amp;lt;CardCorners, CornerCardFace&amp;gt;, int)&lt;/p&gt;&lt;p style=&quot;margin:0 0 0 4px;line-height:1.6;&quot;&gt;+ getAllCardsCopy() : List&amp;lt;CornerCardFace&amp;gt;&lt;/p&gt;&lt;p style=&quot;margin:0 0 0 4px;line-height:1.6;&quot;&gt;+ getAllCards() : List&amp;lt;CornerCardFace&amp;gt;&lt;/p&gt;&lt;p style=&quot;margin:0 0 0 4px;line-height:1.6;&quot;&gt;- addNode(CornerCardFace)&lt;/p&gt;&lt;p style=&quot;margin:0 0 0 4px;line-height:1.6;&quot;&gt;- addEdge(CornerCardFace, CardCorners, CornerCardFace)&lt;/p&gt;" style="verticalAlign=top;align=left;overflow=fill;fontSize=14;fontFamily=Helvetica;html=1;rounded=0;shadow=0;comic=0;labelBackgroundColor=none;strokeWidth=1;fillColor=#e1d5e7;strokeColor=#9673a6;" parent="1" vertex="1">
          <mxGeometry x="2880" y="2430" width="444" height="350" as="geometry" />
        </mxCell>
        <mxCell id="node38" value="&lt;p style=&quot;margin:0px;margin-top:4px;text-align:center;&quot;&gt;&lt;b&gt;Manuscript&lt;/b&gt;&lt;/p&gt;&lt;hr size=&quot;1&quot;&gt;&lt;p style=&quot;margin:0 0 0 4px;line-height:1.6;&quot;&gt;- graph : Graph&lt;/p&gt;&lt;p style=&quot;margin:0 0 0 4px;line-height:1.6;&quot;&gt;- activeSymbols : Map&amp;lt;Symbol, Integer&amp;gt;&lt;/p&gt;&lt;hr size=&quot;1&quot;&gt;&lt;p style=&quot;margin:0 0 0 4px;line-height:1.6;&quot;&gt;+ Manuscript(cardFace : CornerCardFace)&lt;/p&gt;&lt;p style=&quot;margin:0 0 0 4px;line-height:1.6;&quot;&gt;+ getSymbolCount(symbol : Symbol): int&lt;br&gt;+ addCard(xcoordinate : int, ycoordinate : int, cardFace : CornerCardFace, turn : int)&lt;br&gt;&lt;/p&gt;&lt;p style=&quot;margin:0 0 0 4px;line-height:1.6;&quot;&gt;+ getCardByCoord(x : int, y : int) : CornerCardFace&lt;/p&gt;&lt;p style=&quot;margin:0 0 0 4px;line-height:1.6;&quot;&gt;+ calculatePoints(achievementCard : AchievementCard) : int&lt;/p&gt;&lt;p style=&quot;margin:0 0 0 4px;line-height:1.6;&quot;&gt;+ getCardsUnder(cardFace : CornerCardFace) : Map&amp;lt;CardCorners, CornerCardFace&amp;gt;&lt;/p&gt;&lt;p style=&quot;margin:0 0 0 4px;line-height:1.6;&quot;&gt;+ isPlaceable(x : int, y : int, cardFace : CornerCardFace) : boolean&lt;/p&gt;&lt;p style=&quot;margin:0 0 0 4px;line-height:1.6;&quot;&gt;+ getAllCArds() : List&amp;lt;CornerCardFace&amp;gt;&lt;/p&gt;" style="verticalAlign=top;align=left;overflow=fill;fontSize=14;fontFamily=Helvetica;html=1;rounded=0;shadow=0;comic=0;labelBackgroundColor=none;strokeWidth=1;fillColor=#e1d5e7;strokeColor=#9673a6;" parent="1" vertex="1">
          <mxGeometry x="2880" y="2021" width="550" height="280" as="geometry" />
        </mxCell>
        <mxCell id="node20" value="&lt;p style=&quot;margin:0px;margin-top:4px;text-align:center;&quot;&gt;&lt;b&gt;Message&lt;/b&gt;&lt;/p&gt;&lt;hr size=&quot;1&quot;&gt;&lt;p style=&quot;margin:0 0 0 4px;line-height:1.6;&quot;&gt;- timestamp: Timestamp&lt;br&gt;- message: String&lt;br&gt;- sender: Player&lt;/p&gt;&lt;hr size=&quot;1&quot;&gt;&lt;p style=&quot;margin:0 0 0 4px;line-height:1.6;&quot;&gt;+ Message(message : String, name :&amp;nbsp; String)&lt;br&gt;&lt;/p&gt;&lt;p style=&quot;margin:0 0 0 4px;line-height:1.6;&quot;&gt;+ getMessage() : String&lt;br&gt;+ getName() : String&lt;br&gt;+ getTimestamp() : Timestamp&lt;/p&gt;" style="verticalAlign=top;align=left;overflow=fill;fontSize=14;fontFamily=Helvetica;html=1;rounded=0;shadow=0;comic=0;labelBackgroundColor=none;strokeWidth=1;fillColor=#f8cecc;strokeColor=#b85450;" parent="1" vertex="1">
          <mxGeometry x="1426.25" y="2061" width="287.5" height="229" as="geometry" />
        </mxCell>
        <mxCell id="node19" value="&lt;p style=&quot;margin:0px;margin-top:4px;text-align:center;&quot;&gt;&lt;i&gt;&amp;lt;&amp;lt;interface&amp;gt;&amp;gt;&lt;/i&gt;&lt;br&gt;&lt;b&gt;Player&lt;/b&gt;&lt;/p&gt;&lt;hr size=&quot;1&quot;&gt;&lt;p style=&quot;margin:0 0 0 4px;line-height:1.6;&quot;&gt;+ addCardToHand(card : Card) : void&amp;nbsp;&lt;br&gt;+ addPoints(int): void&lt;br&gt;+ initializeManuscript(StartingCard, Face): void&lt;br&gt;+ removeCardFromHand(position : int)&lt;/p&gt;&lt;hr size=&quot;1&quot;&gt;&lt;p style=&quot;margin:0 0 0 4px;line-height:1.6;&quot;&gt;+ getName() : String&lt;br&gt;+ getColor() : Color&lt;/p&gt;&lt;p style=&quot;margin:0 0 0 4px;line-height:1.6;&quot;&gt;+ setColor(color : Color)&lt;br&gt;+ getPoints() : int&lt;/p&gt;&lt;p style=&quot;margin:0 0 0 4px;line-height:1.6;&quot;&gt;+ addPoints(num :int)&lt;/p&gt;&lt;p style=&quot;margin:0 0 0 4px;line-height:1.6;&quot;&gt;+ initializeManuscript(startingCard : Card, face : Face&lt;br&gt;+ getSecretObjective() : AchievementCard&lt;/p&gt;&lt;p style=&quot;margin:0 0 0 4px;line-height:1.6;&quot;&gt;+ setSecretObjective(achievementCard : AchievementCard)&lt;br&gt;+ getManuscript(): Manuscript&lt;/p&gt;&lt;p style=&quot;margin:0 0 0 4px;line-height:1.6;&quot;&gt;+ setReady(ready : boolean)&lt;/p&gt;&lt;p style=&quot;margin:0 0 0 4px;line-height:1.6;&quot;&gt;+ isReady() : boolean&lt;/p&gt;" style="verticalAlign=top;align=left;overflow=fill;fontSize=14;fontFamily=Helvetica;html=1;rounded=0;shadow=0;comic=0;labelBackgroundColor=none;strokeWidth=1;fillColor=#e1d5e7;strokeColor=#9673a6;" parent="1" vertex="1">
          <mxGeometry x="2370" y="1890" width="382" height="411" as="geometry" />
        </mxCell>
        <mxCell id="node7" value="&lt;p style=&quot;margin:0px;margin-top:4px;text-align:center;&quot;&gt;&lt;b&gt;PlayerInstance&lt;/b&gt;&lt;/p&gt;&lt;hr size=&quot;1&quot;&gt;&lt;p style=&quot;margin:0 0 0 4px;line-height:1.6;&quot;&gt;- points: int&lt;br&gt;- name: String&lt;br&gt;- manuscript: Manuscript&lt;br&gt;- secretObjective: AchievementCard&lt;br&gt;- color: Color&lt;/p&gt;&lt;hr size=&quot;1&quot;&gt;&lt;p style=&quot;margin:0 0 0 4px;line-height:1.6;&quot;&gt;+ PlayerInstance(name : String)&lt;br&gt;&lt;/p&gt;&lt;p style=&quot;margin:0 0 0 4px;line-height:1.6;&quot;&gt;+ initializeManuscript(StartingCard, Face): void&lt;br&gt;+ addPoints(int): void&lt;br&gt;+ addCardToHand(card : Card): void&lt;br&gt;+ removeCardFromHand(position . int): void&lt;/p&gt;&lt;p style=&quot;margin:0 0 0 4px;line-height:1.6;&quot;&gt;+ getName() : String&lt;br&gt;+ getColor() : Color&lt;/p&gt;&lt;p style=&quot;margin:0 0 0 4px;line-height:1.6;&quot;&gt;+ setColor(color : Color)&lt;br&gt;+ getPoints() : int&lt;/p&gt;&lt;p style=&quot;margin:0 0 0 4px;line-height:1.6;&quot;&gt;+ addPoints(num : int)&lt;br&gt;+ getHand : List&amp;lt;Card&amp;gt;&lt;br&gt;+ getSecretObjective: AchievementCard&lt;/p&gt;&lt;p style=&quot;margin:0 0 0 4px;line-height:1.6;&quot;&gt;+ setSecretObjective(achievementCard : AchievementCard&lt;br&gt;+ getManuscript() : Manuscript&lt;/p&gt;&lt;p style=&quot;margin:0 0 0 4px;line-height:1.6;&quot;&gt;+ setReady(ready : boolean)&lt;/p&gt;&lt;p style=&quot;margin:0 0 0 4px;line-height:1.6;&quot;&gt;+ isReady() : boolean&lt;/p&gt;" style="verticalAlign=top;align=left;overflow=fill;fontSize=14;fontFamily=Helvetica;html=1;rounded=0;shadow=0;comic=0;labelBackgroundColor=none;strokeWidth=1;fillColor=#e1d5e7;strokeColor=#9673a6;" parent="1" vertex="1">
          <mxGeometry x="2372" y="2430" width="380" height="540" as="geometry" />
        </mxCell>
        <mxCell id="node2" value="&lt;p style=&quot;margin:0px;margin-top:4px;text-align:center;&quot;&gt;&lt;b&gt;RegularBackFace&lt;/b&gt;&lt;/p&gt;&lt;hr size=&quot;1&quot;&gt;&lt;p style=&quot;margin:0 0 0 4px;line-height:1.6;&quot;&gt;- centerSymbols: List&amp;lt;Symbol&amp;gt;&lt;/p&gt;&lt;p style=&quot;margin:0 0 0 4px;line-height:1.6;&quot;&gt;- kingdom : Symbol&lt;/p&gt;&lt;hr size=&quot;1&quot;&gt;&lt;p style=&quot;margin:0 0 0 4px;line-height:1.6;&quot;&gt;+ RegularBackFace(imageURI : String, centerSymbol : List&amp;lt;Symbol&amp;gt;)&lt;br&gt;&lt;/p&gt;&lt;p style=&quot;margin:0 0 0 4px;line-height:1.6;&quot;&gt;+ getCenterSymbols() : List&amp;lt;Symbol&amp;gt;&lt;/p&gt;&lt;p style=&quot;margin:0 0 0 4px;line-height:1.6;&quot;&gt;+ getKingdom() : Symbol&lt;/p&gt;&lt;p style=&quot;margin: 0px 0px 0px 4px; line-height: 1.6;&quot;&gt;+ getScoreRequirements() : Map&amp;lt;Symbol, Integer&amp;gt;&lt;/p&gt;&lt;p style=&quot;margin: 0px 0px 0px 4px; line-height: 1.6;&quot;&gt;+ getPlacementRequirements() : Map&amp;lt;Symbol, Integer&amp;gt;&lt;/p&gt;&lt;p style=&quot;margin: 0px 0px 0px 4px; line-height: 1.6;&quot;&gt;+ getScore() : int&lt;/p&gt;&lt;p style=&quot;margin: 0px 0px 0px 4px; line-height: 1.6;&quot;&gt;+ toString() : String&lt;/p&gt;" style="verticalAlign=top;align=left;overflow=fill;fontSize=14;fontFamily=Helvetica;html=1;rounded=0;shadow=0;comic=0;labelBackgroundColor=none;strokeWidth=1;fillColor=#d5e8d4;strokeColor=#82b366;" parent="1" vertex="1">
          <mxGeometry x="-1513" y="2956" width="440" height="260" as="geometry" />
        </mxCell>
        <mxCell id="node35" value="&lt;p style=&quot;margin:0px;margin-top:4px;text-align:center;&quot;&gt;&lt;b&gt;ResourceCard&lt;/b&gt;&lt;/p&gt;&lt;hr size=&quot;1&quot;&gt;&lt;p style=&quot;margin:0 0 0 4px;line-height:1.6;&quot;&gt;- frontFace : ResourceFrontFace&lt;/p&gt;&lt;p style=&quot;margin:0 0 0 4px;line-height:1.6;&quot;&gt;- backFace : RegularBackFace&lt;/p&gt;&lt;hr size=&quot;1&quot;&gt;&lt;p style=&quot;margin:0 0 0 4px;line-height:1.6;&quot;&gt;+ ResourceCard(frontFace : ResourceFrontFace, backFace : RrgularBackFace)&lt;/p&gt;&lt;p style=&quot;margin:0 0 0 4px;line-height:1.6;&quot;&gt;+ getFace(Face face) : CardFace&lt;/p&gt;&lt;p style=&quot;margin:0 0 0 4px;line-height:1.6;&quot;&gt;+ getCornerFace(Face face) : CornerCardFace&lt;/p&gt;&lt;p style=&quot;margin:0 0 0 4px;line-height:1.6;&quot;&gt;+ toString() : String&lt;/p&gt;" style="verticalAlign=top;align=left;overflow=fill;fontSize=14;fontFamily=Helvetica;html=1;rounded=0;shadow=0;comic=0;labelBackgroundColor=none;strokeWidth=1;fillColor=#dae8fc;strokeColor=#6c8ebf;" parent="1" vertex="1">
          <mxGeometry x="-160" y="2450" width="510" height="190" as="geometry" />
        </mxCell>
        <mxCell id="node25" value="&lt;p style=&quot;margin:0px;margin-top:4px;text-align:center;&quot;&gt;&lt;b&gt;ResourceDeck&lt;/b&gt;&lt;/p&gt;&lt;hr size=&quot;1&quot;&gt;&lt;p style=&quot;margin: 0px 0px 0px 4px; line-height: 1.6;&quot;&gt;- cards : List&amp;lt;GoldCard&amp;gt;&lt;/p&gt;&lt;p style=&quot;margin: 0px 0px 0px 4px; line-height: 1.6;&quot;&gt;- boardCards : Map&amp;lt;DeckPosition, ResourceCard&amp;gt;&lt;/p&gt;&lt;hr size=&quot;1&quot;&gt;&lt;p style=&quot;margin:0 0 0 4px;line-height:1.6;&quot;&gt;- createCards(): void&lt;/p&gt;&lt;p style=&quot;margin:0 0 0 4px;line-height:1.6;&quot;&gt;+ ResourceDeck()&lt;/p&gt;&lt;p style=&quot;margin:0 0 0 4px;line-height:1.6;&quot;&gt;+ ResourceDeck(Boolean test)&lt;/p&gt;&lt;p style=&quot;margin:0 0 0 4px;line-height:1.6;&quot;&gt;+ shuffle() : void&lt;/p&gt;&lt;p style=&quot;margin:0 0 0 4px;line-height:1.6;&quot;&gt;+ moveCardToBoard(where_to : DeckPosition) : void&lt;/p&gt;&lt;p style=&quot;margin:0 0 0 4px;line-height:1.6;&quot;&gt;+ getBoardCard() : Map&amp;lt;DeckPosition, ResourceCard&amp;gt;&lt;/p&gt;&lt;p style=&quot;margin:0 0 0 4px;line-height:1.6;&quot;&gt;+ popCard(position : DeckPosition) : ResourceCard&lt;/p&gt;&lt;p style=&quot;margin:0 0 0 4px;line-height:1.6;&quot;&gt;+ isEmpty() : boolean&lt;/p&gt;&lt;p style=&quot;margin:0 0 0 4px;line-height:1.6;&quot;&gt;+ addCard(card&amp;nbsp; : Card, position : DeckPosition) : void&lt;/p&gt;&lt;p style=&quot;margin:0 0 0 4px;line-height:1.6;&quot;&gt;+ getTopCardNoPop() : ResourceCard&lt;/p&gt;&lt;p style=&quot;margin:0 0 0 4px;line-height:1.6;&quot;&gt;+ getNumberOfCards() : int&lt;/p&gt;&lt;p style=&quot;margin:0 0 0 4px;line-height:1.6;&quot;&gt;&lt;br&gt;&lt;/p&gt;" style="verticalAlign=top;align=left;overflow=fill;fontSize=14;fontFamily=Helvetica;html=1;rounded=0;shadow=0;comic=0;labelBackgroundColor=none;strokeWidth=1;fillColor=#ffe6cc;strokeColor=#d79b00;" parent="1" vertex="1">
          <mxGeometry x="1010" y="3166" width="350" height="344" as="geometry" />
        </mxCell>
        <mxCell id="node24" value="&lt;p style=&quot;margin:0px;margin-top:4px;text-align:center;&quot;&gt;&lt;b&gt;ResourceFrontFace&lt;/b&gt;&lt;/p&gt;&lt;hr size=&quot;1&quot;&gt;&lt;p style=&quot;margin:0 0 0 4px;line-height:1.6;&quot;&gt;&lt;/p&gt;&lt;p style=&quot;margin:0 0 0 4px;line-height:1.6;&quot;&gt;- score : int&lt;/p&gt;&lt;p style=&quot;margin:0 0 0 4px;line-height:1.6;&quot;&gt;- kingdom : Symbol&lt;/p&gt;&lt;hr size=&quot;1&quot;&gt;&lt;p style=&quot;margin:0 0 0 4px;line-height:1.6;&quot;&gt;+ ResourceFrontFace(imageURI : String, cornerSymbols : Map&amp;lt;CardCorners, Symbol&amp;gt;, score : int, kingdom : Symbol)&lt;br&gt;&lt;/p&gt;&lt;p style=&quot;margin: 0px 0px 0px 4px; line-height: 1.6;&quot;&gt;+ getCenterSymbols() : List&amp;lt;Symbol&amp;gt;&lt;/p&gt;&lt;p style=&quot;margin: 0px 0px 0px 4px; line-height: 1.6;&quot;&gt;+ getKingdom() : Symbol&lt;/p&gt;&lt;p style=&quot;margin: 0px 0px 0px 4px; line-height: 1.6;&quot;&gt;+ getScoreRequirements() : Map&amp;lt;Symbol, Integer&amp;gt;&lt;/p&gt;&lt;p style=&quot;margin: 0px 0px 0px 4px; line-height: 1.6;&quot;&gt;+ getPlacementRequirements() : Map&amp;lt;Symbol, Integer&amp;gt;&lt;/p&gt;&lt;p style=&quot;margin: 0px 0px 0px 4px; line-height: 1.6;&quot;&gt;+ getScore() : int&lt;/p&gt;&lt;p style=&quot;margin: 0px 0px 0px 4px; line-height: 1.6;&quot;&gt;+ toString() : String&lt;/p&gt;&lt;div&gt;&lt;br&gt;&lt;/div&gt;" style="verticalAlign=top;align=left;overflow=fill;fontSize=14;fontFamily=Helvetica;html=1;rounded=0;shadow=0;comic=0;labelBackgroundColor=none;strokeWidth=1;fillColor=#d5e8d4;strokeColor=#82b366;" parent="1" vertex="1">
          <mxGeometry x="-3240" y="2860" width="750" height="260" as="geometry" />
        </mxCell>
        <mxCell id="node9" value="&lt;p style=&quot;margin:0px;margin-top:4px;text-align:center;&quot;&gt;&lt;b&gt;StartingCard&lt;/b&gt;&lt;/p&gt;&lt;hr size=&quot;1&quot;&gt;&lt;p style=&quot;margin:0 0 0 4px;line-height:1.6;&quot;&gt;+ StartingCard(StartingFrontFace, RegularBackFace): &lt;/p&gt;&lt;hr size=&quot;1&quot;&gt;&lt;p style=&quot;margin: 0px 0px 0px 4px; line-height: 1.6;&quot;&gt;+ StartingCard(frontFace : StartingFrontFace, backFace : CornerCardFace, imageURI : String)&lt;/p&gt;&lt;p style=&quot;margin: 0px 0px 0px 4px; line-height: 1.6;&quot;&gt;+ getFace(face : Face): CardFace&lt;/p&gt;&lt;p style=&quot;margin: 0px 0px 0px 4px; line-height: 1.6;&quot;&gt;+ getCornerCardFace(face : Face) : CornerCardFace&lt;/p&gt;&lt;p style=&quot;margin: 0px 0px 0px 4px; line-height: 1.6;&quot;&gt;+ toString() : String&lt;/p&gt;" style="verticalAlign=top;align=left;overflow=fill;fontSize=14;fontFamily=Helvetica;html=1;rounded=0;shadow=0;comic=0;labelBackgroundColor=none;strokeWidth=1;fillColor=#dae8fc;strokeColor=#6c8ebf;" parent="1" vertex="1">
          <mxGeometry x="-160" y="3120" width="600" height="180" as="geometry" />
        </mxCell>
        <mxCell id="node36" value="&lt;p style=&quot;margin:0px;margin-top:4px;text-align:center;&quot;&gt;&lt;b&gt;StartingFrontFace&lt;/b&gt;&lt;/p&gt;&lt;hr size=&quot;1&quot;&gt;&lt;p style=&quot;margin:0 0 0 4px;line-height:1.6;&quot;&gt;+ StartingFrontFace(String, Map&amp;lt;Integer, Symbol&amp;gt;, List&amp;lt;Symbol&amp;gt;): &lt;/p&gt;&lt;hr size=&quot;1&quot;&gt;&lt;p style=&quot;margin:0 0 0 4px;line-height:1.6;&quot;&gt;- centerSymbols: List&amp;lt;Symbol&amp;gt;&lt;/p&gt;&lt;hr size=&quot;1&quot;&gt;&lt;p style=&quot;margin: 0px 0px 0px 4px; line-height: 1.6;&quot;&gt;+ StartingFrontFace(imageURI : String, cornerSymbols :&amp;nbsp; Map&amp;lt;CardCorners, Symbol&amp;gt;, centerSymbols : List&amp;lt;Symbol&amp;gt;)&lt;br&gt;&lt;/p&gt;&lt;p style=&quot;margin: 0px 0px 0px 4px; line-height: 1.6;&quot;&gt;+ getCenterSymbols() : List&amp;lt;Symbol&amp;gt;&lt;/p&gt;&lt;p style=&quot;margin: 0px 0px 0px 4px; line-height: 1.6;&quot;&gt;+ getKingdom() : Symbol&lt;/p&gt;&lt;p style=&quot;margin: 0px 0px 0px 4px; line-height: 1.6;&quot;&gt;+ getScoreRequirements() : Map&amp;lt;Symbol, Integer&amp;gt;&lt;/p&gt;&lt;p style=&quot;margin: 0px 0px 0px 4px; line-height: 1.6;&quot;&gt;+ getPlacementRequirements() : Map&amp;lt;Symbol, Integer&amp;gt;&lt;/p&gt;&lt;p style=&quot;margin: 0px 0px 0px 4px; line-height: 1.6;&quot;&gt;+ getScore() : int&lt;/p&gt;&lt;p style=&quot;margin: 0px 0px 0px 4px; line-height: 1.6;&quot;&gt;+ toString() : String&lt;/p&gt;" style="verticalAlign=top;align=left;overflow=fill;fontSize=14;fontFamily=Helvetica;html=1;rounded=0;shadow=0;comic=0;labelBackgroundColor=none;strokeWidth=1;fillColor=#d5e8d4;strokeColor=#82b366;" parent="1" vertex="1">
          <mxGeometry x="-3240" y="3280" width="750" height="270" as="geometry" />
        </mxCell>
        <mxCell id="node14" value="&lt;p style=&quot;margin:0px;margin-top:4px;text-align:center;&quot;&gt;&lt;i&gt;&amp;lt;&amp;lt;enumeration&amp;gt;&amp;gt;&lt;/i&gt;&lt;br&gt;&lt;b&gt;Symbol&lt;/b&gt;&lt;/p&gt;&lt;hr size=&quot;1&quot;&gt;&lt;p style=&quot;margin:0 0 0 4px;line-height:1.6;&quot;&gt;+ FUNGUS&lt;/p&gt;&lt;p style=&quot;margin:0 0 0 4px;line-height:1.6;&quot;&gt;+ BUG&lt;/p&gt;&lt;p style=&quot;margin:0 0 0 4px;line-height:1.6;&quot;&gt;+ ANIMAL&lt;/p&gt;&lt;p style=&quot;margin:0 0 0 4px;line-height:1.6;&quot;&gt;+ PLANT&lt;/p&gt;&lt;p style=&quot;margin:0 0 0 4px;line-height:1.6;&quot;&gt;+ BOTTLE&lt;/p&gt;&lt;p style=&quot;margin:0 0 0 4px;line-height:1.6;&quot;&gt;+ QUILL&lt;/p&gt;&lt;p style=&quot;margin:0 0 0 4px;line-height:1.6;&quot;&gt;+ PARCHMENT&lt;/p&gt;&lt;p style=&quot;margin:0 0 0 4px;line-height:1.6;&quot;&gt;+ EMPTY&lt;/p&gt;&lt;p style=&quot;margin:0 0 0 4px;line-height:1.6;&quot;&gt;+ NONE&lt;/p&gt;&lt;p style=&quot;margin:0 0 0 4px;line-height:1.6;&quot;&gt;+ COVERED_CORNER&lt;/p&gt;&lt;p style=&quot;margin:0 0 0 4px;line-height:1.6;&quot;&gt;+ PATTERN1 ... 8&lt;/p&gt;" style="verticalAlign=top;align=left;overflow=fill;fontSize=14;fontFamily=Helvetica;html=1;rounded=0;shadow=0;comic=0;labelBackgroundColor=none;strokeWidth=1;" parent="1" vertex="1">
          <mxGeometry x="1004" y="950" width="192" height="340" as="geometry" />
        </mxCell>
        <mxCell id="node21" value="&lt;p style=&quot;margin:0px;margin-top:4px;text-align:center;&quot;&gt;&lt;i&gt;&amp;lt;&amp;lt;interface&amp;gt;&amp;gt;&lt;/i&gt;&lt;br&gt;&lt;/p&gt;&lt;p style=&quot;margin:0px;margin-top:4px;text-align:center;&quot;&gt;&lt;b&gt;Controller&lt;/b&gt;&lt;/p&gt;&lt;hr size=&quot;1&quot;&gt;&lt;p style=&quot;margin:0 0 0 4px;line-height:1.6;&quot;&gt;&lt;span style=&quot;background-color: initial;&quot;&gt;&amp;nbsp;+ changeState(state: ServerState): void&amp;nbsp; &amp;nbsp; &amp;nbsp; &amp;nbsp; &amp;nbsp; &amp;nbsp; &amp;nbsp; &amp;nbsp; &amp;nbsp; &amp;nbsp; &amp;nbsp; &amp;nbsp; &amp;nbsp; &amp;nbsp; &amp;nbsp; &amp;nbsp;&amp;nbsp;&lt;/span&gt;&lt;br&gt;&lt;/p&gt;&lt;p style=&quot;margin:0 0 0 4px;line-height:1.6;&quot;&gt;&amp;nbsp;+ addPlayer(name: String, clientID: String): void&amp;nbsp; &amp;nbsp; &amp;nbsp; &amp;nbsp; &amp;nbsp; &amp;nbsp; &amp;nbsp; &amp;nbsp; &amp;nbsp; &amp;nbsp; &amp;nbsp;&lt;/p&gt;&lt;p style=&quot;margin:0 0 0 4px;line-height:1.6;&quot;&gt;&amp;nbsp;+ removePlayer(player: Player): void&amp;nbsp; &amp;nbsp; &amp;nbsp; &amp;nbsp; &amp;nbsp; &amp;nbsp; &amp;nbsp; &amp;nbsp; &amp;nbsp; &amp;nbsp; &amp;nbsp; &amp;nbsp; &amp;nbsp; &amp;nbsp; &amp;nbsp; &amp;nbsp; &amp;nbsp; &amp;nbsp;&lt;span style=&quot;background-color: initial;&quot;&gt;&amp;nbsp; &amp;nbsp; &amp;nbsp; &amp;nbsp; &amp;nbsp; &amp;nbsp; &amp;nbsp; &amp;nbsp; &amp;nbsp; &amp;nbsp; &amp;nbsp; &amp;nbsp; &amp;nbsp; &amp;nbsp; &amp;nbsp; &amp;nbsp;&amp;nbsp;&lt;/span&gt;&lt;/p&gt;&lt;p style=&quot;margin:0 0 0 4px;line-height:1.6;&quot;&gt;&amp;nbsp;+ getPlayerList(): List&amp;lt;Player&amp;gt;&amp;nbsp; &amp;nbsp; &amp;nbsp; &amp;nbsp; &amp;nbsp; &amp;nbsp; &amp;nbsp; &amp;nbsp; &amp;nbsp; &amp;nbsp; &amp;nbsp; &amp;nbsp; &amp;nbsp; &amp;nbsp; &amp;nbsp; &amp;nbsp; &amp;nbsp; &amp;nbsp; &amp;nbsp; &amp;nbsp;&lt;/p&gt;&lt;p style=&quot;margin:0 0 0 4px;line-height:1.6;&quot;&gt;&amp;nbsp;+ setOffline(id: String): void&amp;nbsp; &amp;nbsp; &amp;nbsp; &amp;nbsp; &amp;nbsp; &amp;nbsp; &amp;nbsp; &amp;nbsp; &amp;nbsp; &amp;nbsp; &amp;nbsp; &amp;nbsp; &amp;nbsp; &amp;nbsp; &amp;nbsp; &amp;nbsp; &amp;nbsp; &amp;nbsp; &amp;nbsp; &amp;nbsp;&amp;nbsp;&lt;/p&gt;&lt;p style=&quot;margin:0 0 0 4px;line-height:1.6;&quot;&gt;&amp;nbsp;+ setPlayerColor(color: Color, player: Player): void&amp;nbsp; &amp;nbsp; &amp;nbsp; &amp;nbsp; &amp;nbsp; &amp;nbsp; &amp;nbsp; &amp;nbsp; &amp;nbsp; &lt;span style=&quot;background-color: initial;&quot;&gt;&amp;nbsp; &amp;nbsp; &amp;nbsp; &amp;nbsp; &amp;nbsp;&amp;nbsp;&lt;/span&gt;&lt;/p&gt;&lt;p style=&quot;margin:0 0 0 4px;line-height:1.6;&quot;&gt;&amp;nbsp;+ setReady(player: Player): void&amp;nbsp; &amp;nbsp; &amp;nbsp; &amp;nbsp; &amp;nbsp; &amp;nbsp; &amp;nbsp; &amp;nbsp; &amp;nbsp; &amp;nbsp; &amp;nbsp; &amp;nbsp; &amp;nbsp; &amp;nbsp; &amp;nbsp; &amp;nbsp; &amp;nbsp; &amp;nbsp; &amp;nbsp; &lt;span style=&quot;background-color: initial;&quot;&gt;&amp;nbsp; &amp;nbsp; &amp;nbsp; &amp;nbsp; &amp;nbsp; &amp;nbsp; &amp;nbsp;&lt;/span&gt;&lt;/p&gt;&lt;p style=&quot;margin:0 0 0 4px;line-height:1.6;&quot;&gt;&amp;nbsp;+ setNotReady(player: Player): void&amp;nbsp; &amp;nbsp; &amp;nbsp; &amp;nbsp; &amp;nbsp; &amp;nbsp; &amp;nbsp; &amp;nbsp; &amp;nbsp; &amp;nbsp; &amp;nbsp; &amp;nbsp; &amp;nbsp; &amp;nbsp; &amp;nbsp; &amp;nbsp; &amp;nbsp; &amp;nbsp;&lt;span style=&quot;background-color: initial;&quot;&gt;&amp;nbsp; &amp;nbsp; &amp;nbsp; &amp;nbsp; &amp;nbsp; &amp;nbsp;&amp;nbsp;&lt;/span&gt;&lt;/p&gt;&lt;p style=&quot;margin:0 0 0 4px;line-height:1.6;&quot;&gt;&amp;nbsp;+ isReady(player: Player): boolean&amp;nbsp; &amp;nbsp; &amp;nbsp; &amp;nbsp; &amp;nbsp; &amp;nbsp; &amp;nbsp; &amp;nbsp; &amp;nbsp; &amp;nbsp; &amp;nbsp; &amp;nbsp; &amp;nbsp; &amp;nbsp; &amp;nbsp; &amp;nbsp; &amp;nbsp; &amp;nbsp;&amp;nbsp;&lt;/p&gt;&lt;p style=&quot;margin:0 0 0 4px;line-height:1.6;&quot;&gt;&amp;nbsp;+ setSecretObjectiveCard(player: Player, cardNumber: int): void&lt;/p&gt;&lt;p style=&quot;margin:0 0 0 4px;line-height:1.6;&quot;&gt;&amp;nbsp;+ setStartingCard(player: Player, face: Face): void&amp;nbsp; &amp;nbsp;&lt;/p&gt;&lt;p style=&quot;margin:0 0 0 4px;line-height:1.6;&quot;&gt;&amp;nbsp;+ getTurn(): int&amp;nbsp; &amp;nbsp; &amp;nbsp; &amp;nbsp; &amp;nbsp; &amp;nbsp; &amp;nbsp; &amp;nbsp; &amp;nbsp; &amp;nbsp; &amp;nbsp; &amp;nbsp; &amp;nbsp; &amp;nbsp; &amp;nbsp; &amp;nbsp; &amp;nbsp; &amp;nbsp; &amp;nbsp; &amp;nbsp; &amp;nbsp; &amp;nbsp; &amp;nbsp; &amp;nbsp; &amp;nbsp; &amp;nbsp; &amp;nbsp;&amp;nbsp;&lt;/p&gt;&lt;p style=&quot;margin:0 0 0 4px;line-height:1.6;&quot;&gt;&amp;nbsp;+ isOnline(player: Player): boolean&amp;nbsp; &amp;nbsp; &amp;nbsp; &amp;nbsp; &amp;nbsp; &amp;nbsp; &amp;nbsp; &amp;nbsp; &amp;nbsp; &amp;nbsp; &amp;nbsp; &amp;nbsp; &amp;nbsp; &amp;nbsp; &amp;nbsp; &amp;nbsp; &amp;nbsp; &amp;nbsp;&lt;/p&gt;&lt;p style=&quot;margin:0 0 0 4px;line-height:1.6;&quot;&gt;&amp;nbsp;+ playCard(player: Player, position: int, xCoord: int, yCoord: int, face: Face): void&lt;/p&gt;&lt;p style=&quot;margin:0 0 0 4px;line-height:1.6;&quot;&gt;&amp;nbsp;+ drawCard(player: Player, deckposition: DeckPosition, deck: Decks): void&lt;/p&gt;&lt;p style=&quot;margin:0 0 0 4px;line-height:1.6;&quot;&gt;&amp;nbsp;+ addMessage(message: String, player: Player): void&amp;nbsp;&amp;nbsp;&lt;/p&gt;&lt;p style=&quot;margin:0 0 0 4px;line-height:1.6;&quot;&gt;&amp;nbsp;+ saveGame(): void&amp;nbsp; &amp;nbsp; &amp;nbsp; &amp;nbsp; &amp;nbsp; &amp;nbsp; &amp;nbsp; &amp;nbsp; &amp;nbsp; &amp;nbsp; &amp;nbsp; &amp;nbsp; &amp;nbsp; &amp;nbsp; &amp;nbsp; &amp;nbsp; &amp;nbsp; &amp;nbsp; &amp;nbsp; &amp;nbsp; &amp;nbsp; &amp;nbsp; &amp;nbsp; &amp;nbsp; &amp;nbsp; &amp;nbsp;&amp;nbsp;&lt;/p&gt;&lt;p style=&quot;margin:0 0 0 4px;line-height:1.6;&quot;&gt;&amp;nbsp;+ loadGame(): void&amp;nbsp; &amp;nbsp; &amp;nbsp; &amp;nbsp; &amp;nbsp; &amp;nbsp; &amp;nbsp; &amp;nbsp; &amp;nbsp; &amp;nbsp; &amp;nbsp; &amp;nbsp; &amp;nbsp; &amp;nbsp; &amp;nbsp; &amp;nbsp; &amp;nbsp; &amp;nbsp; &amp;nbsp; &amp;nbsp; &amp;nbsp; &amp;nbsp; &amp;nbsp; &amp;nbsp; &amp;nbsp;&lt;/p&gt;&lt;p style=&quot;margin:0 0 0 4px;line-height:1.6;&quot;&gt;&amp;nbsp;+ getPlayerByName(name: String): Player&amp;nbsp; &amp;nbsp; &amp;nbsp; &amp;nbsp; &amp;nbsp; &amp;nbsp; &amp;nbsp; &amp;nbsp; &amp;nbsp; &amp;nbsp; &amp;nbsp; &amp;nbsp; &amp;nbsp; &amp;nbsp;&amp;nbsp;&lt;/p&gt;&lt;p style=&quot;margin:0 0 0 4px;line-height:1.6;&quot;&gt;&amp;nbsp;+ getConnectionHandler(): GeneralServerConnectionHandler&amp;nbsp; &amp;nbsp; &amp;nbsp; &amp;nbsp; &amp;nbsp; &amp;nbsp; &amp;nbsp;&amp;nbsp;&lt;/p&gt;&lt;p style=&quot;margin:0 0 0 4px;line-height:1.6;&quot;&gt;&amp;nbsp;+ reactToDisconnection(id: String): void&amp;nbsp; &amp;nbsp; &amp;nbsp; &amp;nbsp; &amp;nbsp; &amp;nbsp; &amp;nbsp; &amp;nbsp; &amp;nbsp; &amp;nbsp; &amp;nbsp; &amp;nbsp; &amp;nbsp; &amp;nbsp; &amp;nbsp;&amp;nbsp;&lt;/p&gt;&lt;p style=&quot;margin:0 0 0 4px;line-height:1.6;&quot;&gt;&amp;nbsp;+ reconnect(newId: String, oldId: String): void&amp;nbsp; &amp;nbsp; &amp;nbsp; &amp;nbsp; &amp;nbsp; &amp;nbsp; &amp;nbsp; &amp;nbsp; &amp;nbsp; &amp;nbsp; &amp;nbsp;&lt;/p&gt;&lt;p style=&quot;margin:0 0 0 4px;line-height:1.6;&quot;&gt;&amp;nbsp;+ addSavedPlayer(id: String, name: String): void&amp;nbsp; &amp;nbsp; &amp;nbsp; &amp;nbsp; &amp;nbsp; &amp;nbsp; &amp;nbsp; &amp;nbsp; &amp;nbsp;&amp;nbsp;&lt;/p&gt;&lt;p style=&quot;margin:0 0 0 4px;line-height:1.6;&quot;&gt;&amp;nbsp;+ shufflePlayerList(): void&amp;nbsp; &amp;nbsp; &amp;nbsp; &amp;nbsp; &amp;nbsp; &amp;nbsp; &amp;nbsp; &amp;nbsp; &amp;nbsp; &amp;nbsp; &amp;nbsp; &amp;nbsp; &amp;nbsp; &amp;nbsp; &amp;nbsp; &amp;nbsp; &amp;nbsp; &amp;nbsp; &amp;nbsp; &amp;nbsp; &amp;nbsp; &amp;nbsp;&lt;/p&gt;&lt;p style=&quot;margin:0 0 0 4px;line-height:1.6;&quot;&gt;&amp;nbsp;+ nextTurn(): void&amp;nbsp; &amp;nbsp; &amp;nbsp; &amp;nbsp; &amp;nbsp; &amp;nbsp; &amp;nbsp; &amp;nbsp; &amp;nbsp; &amp;nbsp; &amp;nbsp; &amp;nbsp; &amp;nbsp; &amp;nbsp; &amp;nbsp; &amp;nbsp; &amp;nbsp; &amp;nbsp; &amp;nbsp; &amp;nbsp; &amp;nbsp; &amp;nbsp; &amp;nbsp; &amp;nbsp; &amp;nbsp; &amp;nbsp;&amp;nbsp;&lt;/p&gt;&lt;p style=&quot;margin:0 0 0 4px;line-height:1.6;&quot;&gt;&amp;nbsp;+ giveInitialHand(): void&amp;nbsp; &amp;nbsp; &amp;nbsp; &amp;nbsp; &amp;nbsp; &amp;nbsp; &amp;nbsp; &amp;nbsp; &amp;nbsp; &amp;nbsp; &amp;nbsp; &amp;nbsp; &amp;nbsp; &amp;nbsp; &amp;nbsp; &amp;nbsp; &amp;nbsp; &amp;nbsp; &amp;nbsp; &amp;nbsp; &amp;nbsp; &amp;nbsp; &amp;nbsp;&lt;span style=&quot;background-color: initial;&quot;&gt;&amp;nbsp; &amp;nbsp; &amp;nbsp; &amp;nbsp; &amp;nbsp; &amp;nbsp; &amp;nbsp;&amp;nbsp;&lt;/span&gt;&lt;/p&gt;&lt;p style=&quot;margin:0 0 0 4px;line-height:1.6;&quot;&gt;&amp;nbsp;+ computeLeaderboard(): void&amp;nbsp; &amp;nbsp; &amp;nbsp; &amp;nbsp; &amp;nbsp; &amp;nbsp; &amp;nbsp; &amp;nbsp; &amp;nbsp; &amp;nbsp; &amp;nbsp; &amp;nbsp; &amp;nbsp; &amp;nbsp; &amp;nbsp; &amp;nbsp; &amp;nbsp; &amp;nbsp; &amp;nbsp; &amp;nbsp; &amp;nbsp;&amp;nbsp;&lt;/p&gt;&lt;p style=&quot;margin:0 0 0 4px;line-height:1.6;&quot;&gt;&amp;nbsp;+ disconnectionLeaderboard(): void&amp;nbsp; &amp;nbsp; &amp;nbsp; &amp;nbsp; &amp;nbsp; &amp;nbsp; &amp;nbsp; &amp;nbsp; &amp;nbsp; &amp;nbsp; &amp;nbsp; &amp;nbsp; &amp;nbsp; &amp;nbsp; &amp;nbsp; &amp;nbsp; &amp;nbsp; &amp;nbsp;&amp;nbsp;&lt;/p&gt;&lt;p style=&quot;margin:0 0 0 4px;line-height:1.6;&quot;&gt;&amp;nbsp;+ endGame(): void&amp;nbsp; &amp;nbsp; &amp;nbsp; &amp;nbsp; &amp;nbsp; &amp;nbsp; &amp;nbsp; &amp;nbsp; &amp;nbsp; &amp;nbsp; &amp;nbsp; &amp;nbsp; &amp;nbsp; &amp;nbsp; &amp;nbsp; &amp;nbsp; &amp;nbsp; &amp;nbsp; &amp;nbsp; &amp;nbsp; &amp;nbsp; &amp;nbsp; &amp;nbsp; &amp;nbsp; &amp;nbsp; &amp;nbsp; &amp;nbsp;&lt;/p&gt;&lt;p style=&quot;margin:0 0 0 4px;line-height:1.6;&quot;&gt;&amp;nbsp;+ start(): void&amp;nbsp; &amp;nbsp; &amp;nbsp; &amp;nbsp; &amp;nbsp; &amp;nbsp; &amp;nbsp; &amp;nbsp; &amp;nbsp; &amp;nbsp; &amp;nbsp; &amp;nbsp; &amp;nbsp; &amp;nbsp; &amp;nbsp; &amp;nbsp; &amp;nbsp; &amp;nbsp; &amp;nbsp; &amp;nbsp; &amp;nbsp; &amp;nbsp; &amp;nbsp; &amp;nbsp; &amp;nbsp; &amp;nbsp; &amp;nbsp;&lt;/p&gt;&lt;p style=&quot;margin:0 0 0 4px;line-height:1.6;&quot;&gt;&lt;br&gt;&lt;/p&gt;&lt;div&gt;&lt;br&gt;&lt;/div&gt;" style="verticalAlign=top;align=left;overflow=fill;fontSize=14;fontFamily=Helvetica;html=1;rounded=0;shadow=0;comic=0;labelBackgroundColor=none;strokeWidth=1;" parent="1" vertex="1">
          <mxGeometry x="2580" y="860.75" width="510" height="717.5" as="geometry" />
        </mxCell>
        <mxCell id="MsVvcPOBn9quLAbErUfB-2" value="" style="endArrow=block;dashed=1;endFill=0;endSize=12;html=1;rounded=0;exitX=0.5;exitY=0;exitDx=0;exitDy=0;entryX=0.523;entryY=1;entryDx=0;entryDy=0;entryPerimeter=0;" parent="1" source="node10" target="node13" edge="1">
          <mxGeometry width="160" relative="1" as="geometry">
            <mxPoint x="2240" y="1480" as="sourcePoint" />
            <mxPoint x="2400" y="1480" as="targetPoint" />
          </mxGeometry>
        </mxCell>
        <mxCell id="MsVvcPOBn9quLAbErUfB-3" value="" style="endArrow=block;dashed=1;endFill=0;endSize=12;html=1;rounded=0;entryX=0.5;entryY=1;entryDx=0;entryDy=0;exitX=0.5;exitY=0;exitDx=0;exitDy=0;" parent="1" source="node7" target="node19" edge="1">
          <mxGeometry width="160" relative="1" as="geometry">
            <mxPoint x="2250" y="1760" as="sourcePoint" />
            <mxPoint x="2410" y="1760" as="targetPoint" />
          </mxGeometry>
        </mxCell>
        <mxCell id="MsVvcPOBn9quLAbErUfB-8" value="" style="endArrow=block;dashed=1;endFill=0;endSize=12;html=1;rounded=0;exitX=1;exitY=0.5;exitDx=0;exitDy=0;entryX=0.003;entryY=0.54;entryDx=0;entryDy=0;entryPerimeter=0;" parent="1" source="node40" target="node41" edge="1">
          <mxGeometry width="160" relative="1" as="geometry">
            <mxPoint x="415" y="2464.73" as="sourcePoint" />
            <mxPoint x="575" y="2464.73" as="targetPoint" />
            <Array as="points">
              <mxPoint x="550" y="2226" />
              <mxPoint x="550" y="2740" />
            </Array>
          </mxGeometry>
        </mxCell>
        <mxCell id="MsVvcPOBn9quLAbErUfB-9" value="" style="endArrow=block;dashed=1;endFill=0;endSize=12;html=1;rounded=0;exitX=0.5;exitY=0;exitDx=0;exitDy=0;entryX=0.413;entryY=1.012;entryDx=0;entryDy=0;entryPerimeter=0;" parent="1" edge="1">
          <mxGeometry width="160" relative="1" as="geometry">
            <mxPoint x="-530" y="2915" as="sourcePoint" />
            <mxPoint x="-532.4099999999999" y="2789.2000000000003" as="targetPoint" />
          </mxGeometry>
        </mxCell>
        <mxCell id="MsVvcPOBn9quLAbErUfB-25" value="0..." style="endArrow=open;html=1;endSize=12;startArrow=diamondThin;startSize=14;startFill=1;edgeStyle=orthogonalEdgeStyle;align=left;verticalAlign=bottom;rounded=0;exitX=0.4;exitY=1.034;exitDx=0;exitDy=0;entryX=0.5;entryY=0;entryDx=0;entryDy=0;exitPerimeter=0;" parent="1" source="node39" target="node20" edge="1">
          <mxGeometry x="0.1897" relative="1" as="geometry">
            <mxPoint x="1880" y="1880" as="sourcePoint" />
            <mxPoint x="1880" y="1750" as="targetPoint" />
            <mxPoint as="offset" />
          </mxGeometry>
        </mxCell>
        <mxCell id="MsVvcPOBn9quLAbErUfB-26" value="0...4" style="endArrow=open;html=1;endSize=12;startArrow=diamondThin;startSize=14;startFill=1;edgeStyle=orthogonalEdgeStyle;align=left;verticalAlign=bottom;rounded=0;exitX=1.001;exitY=0.766;exitDx=0;exitDy=0;entryX=-0.008;entryY=0.417;entryDx=0;entryDy=0;exitPerimeter=0;entryPerimeter=0;" parent="1" source="node10" target="node19" edge="1">
          <mxGeometry x="-0.898" y="-1" relative="1" as="geometry">
            <mxPoint x="2360" y="1765" as="sourcePoint" />
            <mxPoint x="2360" y="1635" as="targetPoint" />
            <mxPoint as="offset" />
          </mxGeometry>
        </mxCell>
        <mxCell id="MsVvcPOBn9quLAbErUfB-27" value="1" style="endArrow=open;html=1;endSize=12;startArrow=diamondThin;startSize=14;startFill=1;edgeStyle=orthogonalEdgeStyle;align=left;verticalAlign=bottom;rounded=0;exitX=-0.011;exitY=0.691;exitDx=0;exitDy=0;entryX=1;entryY=0.5;entryDx=0;entryDy=0;exitPerimeter=0;" parent="1" source="node10" target="node39" edge="1">
          <mxGeometry x="-0.8351" relative="1" as="geometry">
            <mxPoint x="1880" y="1740" as="sourcePoint" />
            <mxPoint x="1880" y="1610" as="targetPoint" />
            <mxPoint as="offset" />
          </mxGeometry>
        </mxCell>
        <mxCell id="MsVvcPOBn9quLAbErUfB-46" value="&lt;p style=&quot;margin:0px;margin-top:4px;text-align:center;&quot;&gt;&lt;i&gt;&amp;lt;&amp;lt;enumeration&amp;gt;&amp;gt;&lt;/i&gt;&lt;br&gt;&lt;b&gt;GameState&lt;/b&gt;&lt;/p&gt;&lt;hr size=&quot;1&quot;&gt;&lt;p style=&quot;margin:0 0 0 4px;line-height:1.6;&quot;&gt;+ LOBBY&lt;/p&gt;&lt;p style=&quot;margin:0 0 0 4px;line-height:1.6;&quot;&gt;+ CHOOSE_STARTING_CARD&lt;/p&gt;&lt;p style=&quot;margin:0 0 0 4px;line-height:1.6;&quot;&gt;+ CHOOSE_SECRET_ACHIEVEMENT&lt;/p&gt;&lt;p style=&quot;margin:0 0 0 4px;line-height:1.6;&quot;&gt;+ PLACE_CARD&lt;/p&gt;&lt;p style=&quot;margin:0 0 0 4px;line-height:1.6;&quot;&gt;+ DRAW_CARD&lt;/p&gt;&lt;p style=&quot;margin:0 0 0 4px;line-height:1.6;&quot;&gt;+ LOAD_GAME_LOBBY&lt;/p&gt;&lt;p style=&quot;margin:0 0 0 4px;line-height:1.6;&quot;&gt;+ LEADERBOARD&lt;/p&gt;" style="verticalAlign=top;align=left;overflow=fill;fontSize=14;fontFamily=Helvetica;html=1;rounded=0;shadow=0;comic=0;labelBackgroundColor=none;strokeWidth=1;" parent="1" vertex="1">
          <mxGeometry x="710" y="960" width="270" height="230" as="geometry" />
        </mxCell>
        <mxCell id="MsVvcPOBn9quLAbErUfB-47" value="1" style="endArrow=open;html=1;endSize=12;startArrow=diamondThin;startSize=14;startFill=1;edgeStyle=orthogonalEdgeStyle;align=left;verticalAlign=bottom;rounded=0;exitX=0;exitY=0.5;exitDx=0;exitDy=0;entryX=1.002;entryY=0.539;entryDx=0;entryDy=0;entryPerimeter=0;" parent="1" source="node21" target="node13" edge="1">
          <mxGeometry x="-0.898" y="-1" relative="1" as="geometry">
            <mxPoint x="2370" y="1080" as="sourcePoint" />
            <mxPoint x="2439.45" y="1182.77" as="targetPoint" />
            <mxPoint as="offset" />
            <Array as="points" />
          </mxGeometry>
        </mxCell>
        <mxCell id="MsVvcPOBn9quLAbErUfB-48" value="&lt;p style=&quot;margin:0px;margin-top:4px;text-align:center;&quot;&gt;&lt;b&gt;&amp;lt;&amp;lt;interface&amp;gt;&amp;gt;&lt;/b&gt;&lt;/p&gt;&lt;p style=&quot;margin:0px;margin-top:4px;text-align:center;&quot;&gt;&lt;b&gt;GeneralMessage&lt;/b&gt;&lt;/p&gt;&lt;hr size=&quot;1&quot; style=&quot;border-style:solid;&quot;&gt;&lt;p style=&quot;margin:0px;margin-left:4px;&quot;&gt;&lt;br&gt;&lt;/p&gt;" style="verticalAlign=top;align=left;overflow=fill;html=1;whiteSpace=wrap;" parent="1" vertex="1">
          <mxGeometry x="1400" y="-40" width="220" height="90" as="geometry" />
        </mxCell>
        <mxCell id="MsVvcPOBn9quLAbErUfB-49" value="&lt;p style=&quot;margin:0px;margin-top:4px;text-align:center;&quot;&gt;&lt;b&gt;PlayersMessage&lt;/b&gt;&lt;/p&gt;&lt;hr size=&quot;1&quot; style=&quot;border-style:solid;&quot;&gt;&lt;p style=&quot;margin:0px;margin-left:4px;&quot;&gt;+ list: List&amp;lt;Player&amp;gt; final&lt;/p&gt;&lt;p style=&quot;margin:0px;margin-left:4px;&quot;&gt;&lt;br&gt;&lt;/p&gt;" style="verticalAlign=top;align=left;overflow=fill;html=1;whiteSpace=wrap;" parent="1" vertex="1">
          <mxGeometry x="960" y="120" width="160" height="60" as="geometry" />
        </mxCell>
        <mxCell id="MsVvcPOBn9quLAbErUfB-51" value="&lt;p style=&quot;margin:0px;margin-top:4px;text-align:center;&quot;&gt;&lt;b&gt;GiveCardMessage&lt;/b&gt;&lt;/p&gt;&lt;hr size=&quot;1&quot; style=&quot;border-style:solid;&quot;&gt;&lt;p style=&quot;margin:0px;margin-left:4px;&quot;&gt;+ cards: Map&amp;lt;Player, List&amp;lt;Card&amp;gt;&amp;gt; final&lt;/p&gt;" style="verticalAlign=top;align=left;overflow=fill;html=1;whiteSpace=wrap;" parent="1" vertex="1">
          <mxGeometry x="1360" y="120" width="230" height="70" as="geometry" />
        </mxCell>
        <mxCell id="MsVvcPOBn9quLAbErUfB-52" value="&lt;p style=&quot;margin:0px;margin-top:4px;text-align:center;&quot;&gt;&lt;b&gt;OthersSecretCardSelectionMessage&lt;/b&gt;&lt;/p&gt;&lt;hr size=&quot;1&quot; style=&quot;border-style:solid;&quot;&gt;&lt;p style=&quot;margin:0px;margin-left:4px;&quot;&gt;+ card: Card final&lt;/p&gt;&lt;p style=&quot;margin:0px;margin-left:4px;&quot;&gt;+ player: Player final&lt;/p&gt;" style="verticalAlign=top;align=left;overflow=fill;html=1;whiteSpace=wrap;" parent="1" vertex="1">
          <mxGeometry x="1410" y="-205" width="230" height="70" as="geometry" />
        </mxCell>
        <mxCell id="MsVvcPOBn9quLAbErUfB-54" value="&lt;p style=&quot;margin:0px;margin-top:4px;text-align:center;&quot;&gt;&lt;b&gt;OthersStartingCardSelectionMessage&lt;/b&gt;&lt;/p&gt;&lt;hr size=&quot;1&quot; style=&quot;border-style:solid;&quot;&gt;&lt;p style=&quot;margin:0px;margin-left:4px;&quot;&gt;+ cardFace: CardFace final&lt;/p&gt;&lt;p style=&quot;margin:0px;margin-left:4px;&quot;&gt;+ player: Player final&lt;/p&gt;" style="verticalAlign=top;align=left;overflow=fill;html=1;whiteSpace=wrap;" parent="1" vertex="1">
          <mxGeometry x="1840" y="-190" width="242.5" height="70" as="geometry" />
        </mxCell>
        <mxCell id="MsVvcPOBn9quLAbErUfB-55" value="&lt;p style=&quot;margin:0px;margin-top:4px;text-align:center;&quot;&gt;&lt;b&gt;DrawCardMessage&lt;/b&gt;&lt;/p&gt;&lt;hr size=&quot;1&quot; style=&quot;border-style:solid;&quot;&gt;&lt;p style=&quot;margin:0px;margin-left:4px;&quot;&gt;+ card: Card final&lt;/p&gt;&lt;p style=&quot;margin:0px;margin-left:4px;&quot;&gt;+ player: Player final&lt;/p&gt;&lt;p style=&quot;margin:0px;margin-left:4px;&quot;&gt;+ from: Decks&lt;/p&gt;&lt;p style=&quot;margin:0px;margin-left:4px;&quot;&gt;+ newBoardCard: Card&lt;/p&gt;" style="verticalAlign=top;align=left;overflow=fill;html=1;whiteSpace=wrap;" parent="1" vertex="1">
          <mxGeometry x="950" y="-200" width="240" height="103" as="geometry" />
        </mxCell>
        <mxCell id="MsVvcPOBn9quLAbErUfB-56" value="&lt;p style=&quot;margin:0px;margin-top:4px;text-align:center;&quot;&gt;&lt;b&gt;TimeoutMessage&lt;/b&gt;&lt;/p&gt;&lt;hr size=&quot;1&quot; style=&quot;border-style:solid;&quot;&gt;&lt;p style=&quot;margin:0px;margin-left:4px;&quot;&gt;+ player: Player final&lt;/p&gt;" style="verticalAlign=top;align=left;overflow=fill;html=1;whiteSpace=wrap;" parent="1" vertex="1">
          <mxGeometry x="1620" y="120" width="170" height="60" as="geometry" />
        </mxCell>
        <mxCell id="MsVvcPOBn9quLAbErUfB-57" value="&lt;p style=&quot;margin:0px;margin-top:4px;text-align:center;&quot;&gt;&lt;b&gt;NextTurnMessage&lt;/b&gt;&lt;/p&gt;&lt;hr size=&quot;1&quot; style=&quot;border-style:solid;&quot;&gt;&lt;p style=&quot;margin:0px;margin-left:4px;&quot;&gt;+ player: Player final&lt;/p&gt;&lt;p style=&quot;margin:0px;margin-left:4px;&quot;&gt;+ turn: int&lt;/p&gt;" style="verticalAlign=top;align=left;overflow=fill;html=1;whiteSpace=wrap;" parent="1" vertex="1">
          <mxGeometry x="1156" y="120" width="170" height="70" as="geometry" />
        </mxCell>
        <mxCell id="MsVvcPOBn9quLAbErUfB-58" value="&lt;p style=&quot;margin:0px;margin-top:4px;text-align:center;&quot;&gt;&lt;b&gt;CardPlacementMessage&lt;/b&gt;&lt;/p&gt;&lt;hr size=&quot;1&quot; style=&quot;border-style:solid;&quot;&gt;&lt;p style=&quot;margin:0px;margin-left:4px;&quot;&gt;+ player: Player final&lt;/p&gt;&lt;p style=&quot;margin:0px;margin-left:4px;&quot;&gt;+ cardFace: cardFace&lt;/p&gt;&lt;p style=&quot;margin:0px;margin-left:4px;&quot;&gt;+ where_x : int&lt;/p&gt;&lt;p style=&quot;margin:0px;margin-left:4px;&quot;&gt;+ where_y: int&lt;/p&gt;" style="verticalAlign=top;align=left;overflow=fill;html=1;whiteSpace=wrap;" parent="1" vertex="1">
          <mxGeometry x="1840" y="120" width="210" height="100" as="geometry" />
        </mxCell>
        <mxCell id="MsVvcPOBn9quLAbErUfB-59" value="&lt;p style=&quot;margin:0px;margin-top:4px;text-align:center;&quot;&gt;&lt;b&gt;EndGamePhaseMessage&lt;/b&gt;&lt;/p&gt;&lt;hr size=&quot;1&quot; style=&quot;border-style:solid;&quot;&gt;&lt;p style=&quot;margin:0px;margin-left:4px;&quot;&gt;&lt;br&gt;&lt;/p&gt;" style="verticalAlign=top;align=left;overflow=fill;html=1;whiteSpace=wrap;" parent="1" vertex="1">
          <mxGeometry x="1846" y="-90" width="170" height="60" as="geometry" />
        </mxCell>
        <mxCell id="MsVvcPOBn9quLAbErUfB-60" value="&lt;p style=&quot;margin:0px;margin-top:4px;text-align:center;&quot;&gt;&lt;b&gt;LeaderboardMessage&lt;/b&gt;&lt;/p&gt;&lt;hr size=&quot;1&quot; style=&quot;border-style:solid;&quot;&gt;&lt;p style=&quot;margin:0px;margin-left:4px;&quot;&gt;&lt;span style=&quot;background-color: initial;&quot;&gt;+ points: Map&amp;lt;Player, int&amp;gt;&lt;/span&gt;&lt;br&gt;&lt;/p&gt;" style="verticalAlign=top;align=left;overflow=fill;html=1;whiteSpace=wrap;" parent="1" vertex="1">
          <mxGeometry x="954" y="-40" width="166" height="70" as="geometry" />
        </mxCell>
        <mxCell id="MsVvcPOBn9quLAbErUfB-61" value="&lt;p style=&quot;margin:0px;margin-top:4px;text-align:center;&quot;&gt;&lt;b&gt;GameOverMessage&lt;/b&gt;&lt;/p&gt;&lt;hr size=&quot;1&quot; style=&quot;border-style:solid;&quot;&gt;&lt;p style=&quot;margin:0px;margin-left:4px;&quot;&gt;&lt;br&gt;&lt;/p&gt;" style="verticalAlign=top;align=left;overflow=fill;html=1;whiteSpace=wrap;" parent="1" vertex="1">
          <mxGeometry x="1654" y="-200" width="170" height="60" as="geometry" />
        </mxCell>
        <mxCell id="MsVvcPOBn9quLAbErUfB-62" value="" style="endArrow=block;dashed=1;endFill=0;endSize=12;html=1;rounded=0;exitX=0.5;exitY=0;exitDx=0;exitDy=0;entryX=0.75;entryY=1;entryDx=0;entryDy=0;" parent="1" source="MsVvcPOBn9quLAbErUfB-56" target="MsVvcPOBn9quLAbErUfB-48" edge="1">
          <mxGeometry width="160" relative="1" as="geometry">
            <mxPoint x="1290" y="370" as="sourcePoint" />
            <mxPoint x="1450" y="370" as="targetPoint" />
          </mxGeometry>
        </mxCell>
        <mxCell id="MsVvcPOBn9quLAbErUfB-63" value="" style="endArrow=block;dashed=1;endFill=0;endSize=12;html=1;rounded=0;exitX=1;exitY=0.5;exitDx=0;exitDy=0;entryX=0;entryY=0.5;entryDx=0;entryDy=0;" parent="1" source="MsVvcPOBn9quLAbErUfB-60" target="MsVvcPOBn9quLAbErUfB-48" edge="1">
          <mxGeometry width="160" relative="1" as="geometry">
            <mxPoint x="1210" y="4.3799999999999955" as="sourcePoint" />
            <mxPoint x="1370" y="4.3799999999999955" as="targetPoint" />
          </mxGeometry>
        </mxCell>
        <mxCell id="MsVvcPOBn9quLAbErUfB-64" value="" style="endArrow=block;dashed=1;endFill=0;endSize=12;html=1;rounded=0;exitX=0.5;exitY=0;exitDx=0;exitDy=0;entryX=0;entryY=1;entryDx=0;entryDy=0;" parent="1" source="MsVvcPOBn9quLAbErUfB-49" target="MsVvcPOBn9quLAbErUfB-48" edge="1">
          <mxGeometry width="160" relative="1" as="geometry">
            <mxPoint x="1210" y="80" as="sourcePoint" />
            <mxPoint x="1370" y="80" as="targetPoint" />
          </mxGeometry>
        </mxCell>
        <mxCell id="MsVvcPOBn9quLAbErUfB-65" value="" style="endArrow=block;dashed=1;endFill=0;endSize=12;html=1;rounded=0;exitX=0.5;exitY=0;exitDx=0;exitDy=0;entryX=0.5;entryY=1;entryDx=0;entryDy=0;" parent="1" source="MsVvcPOBn9quLAbErUfB-51" target="MsVvcPOBn9quLAbErUfB-48" edge="1">
          <mxGeometry width="160" relative="1" as="geometry">
            <mxPoint x="1300" y="380" as="sourcePoint" />
            <mxPoint x="1460" y="380" as="targetPoint" />
          </mxGeometry>
        </mxCell>
        <mxCell id="MsVvcPOBn9quLAbErUfB-66" value="" style="endArrow=block;dashed=1;endFill=0;endSize=12;html=1;rounded=0;exitX=0;exitY=0.5;exitDx=0;exitDy=0;entryX=1;entryY=0.5;entryDx=0;entryDy=0;" parent="1" source="MsVvcPOBn9quLAbErUfB-59" target="MsVvcPOBn9quLAbErUfB-48" edge="1">
          <mxGeometry width="160" relative="1" as="geometry">
            <mxPoint x="1310" y="390" as="sourcePoint" />
            <mxPoint x="1470" y="390" as="targetPoint" />
          </mxGeometry>
        </mxCell>
        <mxCell id="MsVvcPOBn9quLAbErUfB-67" value="" style="endArrow=block;dashed=1;endFill=0;endSize=12;html=1;rounded=0;entryX=1;entryY=1;entryDx=0;entryDy=0;exitX=0;exitY=0;exitDx=0;exitDy=0;" parent="1" source="MsVvcPOBn9quLAbErUfB-58" target="MsVvcPOBn9quLAbErUfB-48" edge="1">
          <mxGeometry width="160" relative="1" as="geometry">
            <mxPoint x="1320" y="400" as="sourcePoint" />
            <mxPoint x="1480" y="400" as="targetPoint" />
          </mxGeometry>
        </mxCell>
        <mxCell id="MsVvcPOBn9quLAbErUfB-68" value="" style="endArrow=block;dashed=1;endFill=0;endSize=12;html=1;rounded=0;exitX=0.5;exitY=0;exitDx=0;exitDy=0;entryX=0.25;entryY=1;entryDx=0;entryDy=0;" parent="1" source="MsVvcPOBn9quLAbErUfB-57" target="MsVvcPOBn9quLAbErUfB-48" edge="1">
          <mxGeometry width="160" relative="1" as="geometry">
            <mxPoint x="1330" y="410" as="sourcePoint" />
            <mxPoint x="1490" y="410" as="targetPoint" />
          </mxGeometry>
        </mxCell>
        <mxCell id="MsVvcPOBn9quLAbErUfB-69" value="" style="endArrow=block;dashed=1;endFill=0;endSize=12;html=1;rounded=0;entryX=0;entryY=0;entryDx=0;entryDy=0;exitX=1;exitY=1;exitDx=0;exitDy=0;" parent="1" source="MsVvcPOBn9quLAbErUfB-55" target="MsVvcPOBn9quLAbErUfB-48" edge="1">
          <mxGeometry width="160" relative="1" as="geometry">
            <mxPoint x="1320" y="400" as="sourcePoint" />
            <mxPoint x="1480" y="400" as="targetPoint" />
          </mxGeometry>
        </mxCell>
        <mxCell id="MsVvcPOBn9quLAbErUfB-70" value="" style="endArrow=block;dashed=1;endFill=0;endSize=12;html=1;rounded=0;exitX=0;exitY=1;exitDx=0;exitDy=0;entryX=1;entryY=0;entryDx=0;entryDy=0;" parent="1" source="MsVvcPOBn9quLAbErUfB-54" target="MsVvcPOBn9quLAbErUfB-48" edge="1">
          <mxGeometry width="160" relative="1" as="geometry">
            <mxPoint x="1330" y="410" as="sourcePoint" />
            <mxPoint x="1490" y="410" as="targetPoint" />
          </mxGeometry>
        </mxCell>
        <mxCell id="MsVvcPOBn9quLAbErUfB-71" value="" style="endArrow=block;dashed=1;endFill=0;endSize=12;html=1;rounded=0;entryX=0.5;entryY=0;entryDx=0;entryDy=0;exitX=0.5;exitY=1;exitDx=0;exitDy=0;" parent="1" source="MsVvcPOBn9quLAbErUfB-52" target="MsVvcPOBn9quLAbErUfB-48" edge="1">
          <mxGeometry width="160" relative="1" as="geometry">
            <mxPoint x="1330" y="410" as="sourcePoint" />
            <mxPoint x="1490" y="410" as="targetPoint" />
          </mxGeometry>
        </mxCell>
        <mxCell id="MsVvcPOBn9quLAbErUfB-72" value="" style="endArrow=block;dashed=1;endFill=0;endSize=12;html=1;rounded=0;entryX=0.75;entryY=0;entryDx=0;entryDy=0;exitX=0.5;exitY=1;exitDx=0;exitDy=0;" parent="1" source="MsVvcPOBn9quLAbErUfB-61" target="MsVvcPOBn9quLAbErUfB-48" edge="1">
          <mxGeometry width="160" relative="1" as="geometry">
            <mxPoint x="1340" y="420" as="sourcePoint" />
            <mxPoint x="1500" y="420" as="targetPoint" />
          </mxGeometry>
        </mxCell>
        <mxCell id="MsVvcPOBn9quLAbErUfB-75" value="&lt;p style=&quot;margin:0px;margin-top:4px;text-align:center;&quot;&gt;&lt;b&gt;ChatMessage&lt;/b&gt;&lt;/p&gt;&lt;hr size=&quot;1&quot; style=&quot;border-style:solid;&quot;&gt;&lt;p style=&quot;margin:0px;margin-left:4px;&quot;&gt;+ message: Message final&lt;/p&gt;" style="verticalAlign=top;align=left;overflow=fill;html=1;whiteSpace=wrap;" parent="1" vertex="1">
          <mxGeometry x="1225" y="-205" width="170" height="60" as="geometry" />
        </mxCell>
        <mxCell id="MsVvcPOBn9quLAbErUfB-76" value="" style="endArrow=block;dashed=1;endFill=0;endSize=12;html=1;rounded=0;entryX=0.25;entryY=0;entryDx=0;entryDy=0;exitX=0.5;exitY=1;exitDx=0;exitDy=0;" parent="1" source="MsVvcPOBn9quLAbErUfB-75" target="MsVvcPOBn9quLAbErUfB-48" edge="1">
          <mxGeometry width="160" relative="1" as="geometry">
            <mxPoint x="1535" y="-125" as="sourcePoint" />
            <mxPoint x="1520" y="-30" as="targetPoint" />
          </mxGeometry>
        </mxCell>
        <mxCell id="MsVvcPOBn9quLAbErUfB-85" value="&lt;p style=&quot;margin:0px;margin-top:4px;text-align:center;&quot;&gt;&lt;b&gt;GameStateMessage&lt;/b&gt;&lt;/p&gt;&lt;hr size=&quot;1&quot; style=&quot;border-style:solid;&quot;&gt;&lt;p style=&quot;margin:0px;margin-left:4px;&quot;&gt;+ gameModel: GameModel&lt;/p&gt;" style="verticalAlign=top;align=left;overflow=fill;html=1;whiteSpace=wrap;" parent="1" vertex="1">
          <mxGeometry x="1840" width="170" height="60" as="geometry" />
        </mxCell>
        <mxCell id="MsVvcPOBn9quLAbErUfB-86" value="" style="endArrow=block;dashed=1;endFill=0;endSize=12;html=1;rounded=0;exitX=0;exitY=0.5;exitDx=0;exitDy=0;entryX=1;entryY=0.75;entryDx=0;entryDy=0;" parent="1" source="MsVvcPOBn9quLAbErUfB-85" target="MsVvcPOBn9quLAbErUfB-48" edge="1">
          <mxGeometry width="160" relative="1" as="geometry">
            <mxPoint x="1856" y="-50" as="sourcePoint" />
            <mxPoint x="1630" y="15" as="targetPoint" />
          </mxGeometry>
        </mxCell>
        <mxCell id="MsVvcPOBn9quLAbErUfB-109" value="&lt;p style=&quot;margin:0px;margin-top:4px;text-align:center;&quot;&gt;&lt;b&gt;Client&lt;/b&gt;&lt;/p&gt;&lt;hr size=&quot;1&quot; style=&quot;border-style:solid;&quot;&gt;&lt;p style=&quot;margin:0px;margin-left:4px;&quot;&gt;// TO DO&lt;/p&gt;&lt;hr size=&quot;1&quot; style=&quot;border-style:solid;&quot;&gt;&lt;p style=&quot;margin:0px;margin-left:4px;&quot;&gt;// TO DO&lt;/p&gt;" style="verticalAlign=top;align=left;overflow=fill;html=1;whiteSpace=wrap;" parent="1" vertex="1">
          <mxGeometry x="3500" y="289" width="160" height="90" as="geometry" />
        </mxCell>
        <mxCell id="pE2bAwQ2Phy2O29brQl_-2" value="-i metodi che non hanno ne + ne - ne () sono getter e sono pubblici&lt;div&gt;-tutti i metodi (esclusi quelli che ritornano tipi primitivi o void) ritornano interfacce di modo che il controller possa chiamare i metodi delle interfacce&amp;nbsp;&lt;/div&gt;&lt;div&gt;&lt;div&gt;/**&lt;/div&gt;&lt;div&gt;&amp;nbsp;* &amp;nbsp;FASE 0: INIZIALIZZAZIONE&lt;/div&gt;&lt;div&gt;&amp;nbsp;* &amp;nbsp;-&lt;/div&gt;&lt;div&gt;&amp;nbsp;* &amp;nbsp;&amp;lt;p&amp;gt;&lt;/div&gt;&lt;div&gt;&amp;nbsp;* &amp;nbsp;FASE 1: CONNESSIONE&lt;/div&gt;&lt;div&gt;&amp;nbsp;* &amp;nbsp; &amp;nbsp; &amp;nbsp;DOPO LA CONNESSIONE&lt;/div&gt;&lt;div&gt;&amp;nbsp;*&lt;/div&gt;&lt;div&gt;&amp;nbsp;* &amp;lt;p&amp;gt;&lt;/div&gt;&lt;div&gt;&amp;nbsp;* &amp;nbsp;FASE 2: PREPARAZIONE PARTITA&lt;/div&gt;&lt;div&gt;&amp;nbsp;* &amp;nbsp;2.0:&lt;/div&gt;&lt;div&gt;&amp;nbsp;* &amp;nbsp; &amp;nbsp; &amp;nbsp;subscribeClients()&lt;/div&gt;&lt;div&gt;&amp;nbsp;* &amp;nbsp; &amp;nbsp; &amp;nbsp; &amp;nbsp;sottoscrivere i client agli eventi&lt;/div&gt;&lt;div&gt;&amp;nbsp;* &amp;nbsp;2.1: SHUFFLE PLAYERS, DISTRIBUISCI SEGNALINO -&amp;gt; INVIA DATI (ORDINE DI GIOCO DEI PLAYER)&lt;/div&gt;&lt;div&gt;&amp;nbsp;* &amp;nbsp; &amp;nbsp; &amp;nbsp; setupMatch()&lt;/div&gt;&lt;div&gt;&amp;nbsp;* &amp;nbsp; &amp;nbsp; &amp;nbsp; &amp;nbsp; &amp;nbsp;gameModel = new GamemodelInstance()&lt;/div&gt;&lt;div&gt;&amp;nbsp;* &amp;nbsp; &amp;nbsp; &amp;nbsp; &amp;nbsp; &amp;nbsp; &amp;nbsp; &amp;nbsp;shufflePlayers() (nel costruttore)&lt;/div&gt;&lt;div&gt;&amp;nbsp;* &amp;nbsp; &amp;nbsp; &amp;nbsp; &amp;nbsp; &amp;nbsp;eventHandler::notify(Event.playersOrder, )&lt;/div&gt;&lt;div&gt;&amp;nbsp;*&lt;/div&gt;&lt;div&gt;&amp;nbsp;* &amp;nbsp;2.2: PLAYER SCEGLIE NOME, COLORE - PARALLELO -&amp;gt; RICEVI DATI (CONTROLLO NOME DIVERSO)&lt;/div&gt;&lt;div&gt;&amp;nbsp;* &amp;nbsp; &amp;nbsp; &amp;nbsp; &amp;nbsp;gameModel.getPlayers[].setName() (dentro setplayerData)&lt;/div&gt;&lt;div&gt;&amp;nbsp;* &amp;nbsp;2.3: CONFERMA PER IL COLORE -&amp;gt; INVIA DATI&lt;/div&gt;&lt;div&gt;&amp;nbsp;* &amp;nbsp; &amp;nbsp; &amp;nbsp; &amp;nbsp;setPlayerData()&lt;/div&gt;&lt;div&gt;&amp;nbsp;* &amp;nbsp; &amp;nbsp; &amp;nbsp; &amp;nbsp;notify(Event.playersData) (in setPlayerData)&lt;/div&gt;&lt;div&gt;&amp;nbsp;* &amp;nbsp;2.5.0 : PLAYER RICEVE CARTA SEGRETA -&amp;gt; INVIA DATI&lt;/div&gt;&lt;div&gt;&amp;nbsp;* &amp;nbsp; &amp;nbsp; &amp;nbsp; &amp;nbsp; &amp;nbsp;giveSecretObjectiveCard()&lt;/div&gt;&lt;div&gt;&amp;nbsp;* &amp;nbsp; &amp;nbsp; &amp;nbsp; &amp;nbsp; &amp;nbsp; &amp;nbsp; &amp;nbsp;achievementDeck::popCard()&lt;/div&gt;&lt;div&gt;&amp;nbsp;* &amp;nbsp; &amp;nbsp; &amp;nbsp; &amp;nbsp; &amp;nbsp; &amp;nbsp; &amp;nbsp;achievementDeck::popCard()&lt;/div&gt;&lt;div&gt;&amp;nbsp;* &amp;nbsp; &amp;nbsp; &amp;nbsp; &amp;nbsp; &amp;nbsp; &amp;nbsp; &amp;nbsp;notify(Event.secretCardSelection,)&lt;/div&gt;&lt;div&gt;&amp;nbsp;* &amp;nbsp; &amp;nbsp; &amp;nbsp; &amp;nbsp; &amp;nbsp; &amp;nbsp; &amp;nbsp;receive chosen card from client&lt;/div&gt;&lt;div&gt;&amp;nbsp;* &amp;nbsp; &amp;nbsp; &amp;nbsp; &amp;nbsp; &amp;nbsp; &amp;nbsp; &amp;nbsp;player::setSecretObjectiveCard(card)&lt;/div&gt;&lt;div&gt;&amp;nbsp;* &amp;nbsp; &amp;nbsp; &amp;nbsp; &amp;nbsp; &amp;nbsp; &amp;nbsp; &amp;nbsp;notify(Event.othersSecretCardSelection,&lt;/div&gt;&lt;div&gt;&amp;nbsp;* &amp;nbsp;2.5: PLAYER SCEGLIE CARTE INIZIALI -&amp;gt; INVIA &amp;amp; RICEVI DATI&lt;/div&gt;&lt;div&gt;&amp;nbsp;* &amp;nbsp; &amp;nbsp; &amp;nbsp; &amp;nbsp; &amp;nbsp;giveStartingCards()&lt;/div&gt;&lt;div&gt;&amp;nbsp;* &amp;nbsp; &amp;nbsp; &amp;nbsp; &amp;nbsp; &amp;nbsp; &amp;nbsp; &amp;nbsp;getStartingCards() ritorna la lista mescolata di carte iniziali&lt;/div&gt;&lt;div&gt;&amp;nbsp;* &amp;nbsp; &amp;nbsp; &amp;nbsp; &amp;nbsp; &amp;nbsp; &amp;nbsp; &amp;nbsp;notify(Event.StartingCards, )&lt;/div&gt;&lt;div&gt;&amp;nbsp;* &amp;nbsp; &amp;nbsp; &amp;nbsp; &amp;nbsp; &amp;nbsp; &amp;nbsp; &amp;nbsp;receive cards face from client&lt;/div&gt;&lt;div&gt;&amp;nbsp;* &amp;nbsp; &amp;nbsp; &amp;nbsp; &amp;nbsp; &amp;nbsp; &amp;nbsp; &amp;nbsp;forEach(player -&amp;gt; player.initManuscript(startingCard, face));&lt;/div&gt;&lt;div&gt;&amp;nbsp;* &amp;nbsp; &amp;nbsp; &amp;nbsp; &amp;nbsp; &amp;nbsp; &amp;nbsp; &amp;nbsp;notify(Event.othersStartingCards, )&lt;/div&gt;&lt;div&gt;&amp;nbsp;*&lt;/div&gt;&lt;div&gt;&amp;nbsp;*&lt;/div&gt;&lt;div&gt;&amp;nbsp;* &amp;nbsp;2.6: DISTRIBUISCI CARTE -&amp;gt; INVIA DATI&lt;/div&gt;&lt;div&gt;&amp;nbsp;* &amp;nbsp; &amp;nbsp; &amp;nbsp; &amp;nbsp; &amp;nbsp;giveInitialHand()&lt;/div&gt;&lt;div&gt;&amp;nbsp;* &amp;nbsp; &amp;nbsp; &amp;nbsp; &amp;nbsp; &amp;nbsp; &amp;nbsp; &amp;nbsp;resourceDeck::popCard()&lt;/div&gt;&lt;div&gt;&amp;nbsp;* &amp;nbsp; &amp;nbsp; &amp;nbsp; &amp;nbsp; &amp;nbsp; &amp;nbsp; &amp;nbsp;player.addCardToHand(card)&lt;/div&gt;&lt;div&gt;&amp;nbsp;* &amp;nbsp; &amp;nbsp; &amp;nbsp; &amp;nbsp; &amp;nbsp; &amp;nbsp; &amp;nbsp;notify(Event.drawCard,)&lt;/div&gt;&lt;div&gt;&amp;nbsp;* &amp;nbsp; &amp;nbsp; &amp;nbsp; &amp;nbsp; &amp;nbsp; &amp;nbsp; &amp;nbsp;resourceDeck::popCard()&lt;/div&gt;&lt;div&gt;&amp;nbsp;* &amp;nbsp; &amp;nbsp; &amp;nbsp; &amp;nbsp; &amp;nbsp; &amp;nbsp; &amp;nbsp;player.addCardToHand(card)&lt;/div&gt;&lt;div&gt;&amp;nbsp;* &amp;nbsp; &amp;nbsp; &amp;nbsp; &amp;nbsp; &amp;nbsp; &amp;nbsp; &amp;nbsp;notify(Event.drawCard,)&lt;/div&gt;&lt;div&gt;&amp;nbsp;* &amp;nbsp; &amp;nbsp; &amp;nbsp; &amp;nbsp; &amp;nbsp; &amp;nbsp; &amp;nbsp;goldDeck::popCard()&lt;/div&gt;&lt;div&gt;&amp;nbsp;* &amp;nbsp; &amp;nbsp; &amp;nbsp; &amp;nbsp; &amp;nbsp; &amp;nbsp; &amp;nbsp;player::addCardToHand(card)&lt;/div&gt;&lt;div&gt;&amp;nbsp;* &amp;nbsp; &amp;nbsp; &amp;nbsp; &amp;nbsp; &amp;nbsp; &amp;nbsp; &amp;nbsp;notify(Event.drawCard,)&lt;/div&gt;&lt;div&gt;&amp;nbsp;* &amp;nbsp;&amp;lt;p&amp;gt;&lt;/div&gt;&lt;div&gt;&amp;nbsp;* &amp;nbsp;FASE 3: GIOCO&lt;/div&gt;&lt;div&gt;&amp;nbsp;* &amp;nbsp; &amp;nbsp; &amp;nbsp; &amp;nbsp; gameModel.nextTurn()&lt;/div&gt;&lt;div&gt;&amp;nbsp;*&lt;/div&gt;&lt;div&gt;&amp;nbsp;* &amp;nbsp;3.0: VEDI SE IL PLAYER E ONLINE ALTRIMENTI SALTA TURNO&lt;/div&gt;&lt;div&gt;&amp;nbsp;* &amp;nbsp; &amp;nbsp; &amp;nbsp; &amp;nbsp; &amp;nbsp;try {&lt;/div&gt;&lt;div&gt;&amp;nbsp;* &amp;nbsp; &amp;nbsp; &amp;nbsp; &amp;nbsp; &amp;nbsp; &amp;nbsp;new Thread(() -&amp;gt; {while (!fineTurno) {if (timeout) {throw new TimeoutException();}}}).start()&lt;/div&gt;&lt;div&gt;&amp;nbsp;*&lt;/div&gt;&lt;div&gt;&amp;nbsp;* &amp;nbsp;3.1: PLAYER SCEGLIE LA CARTA DA GIOCARE E LA POSIZIONE -&amp;gt; RICEVI DATI&lt;/div&gt;&lt;div&gt;&amp;nbsp;* &amp;nbsp; &amp;nbsp; &amp;nbsp; &amp;nbsp; &amp;nbsp;playerTurn()&lt;/div&gt;&lt;div&gt;&amp;nbsp;* &amp;nbsp; &amp;nbsp; &amp;nbsp; &amp;nbsp; &amp;nbsp; &amp;nbsp; &amp;nbsp;notify(Event.nextTurn, numero di turno e chi deve giocare)&lt;/div&gt;&lt;div&gt;&amp;nbsp;* &amp;nbsp; &amp;nbsp; &amp;nbsp; &amp;nbsp; &amp;nbsp; &amp;nbsp; &amp;nbsp;receive client move (resourceFrontFace, position)&lt;/div&gt;&lt;div&gt;&amp;nbsp;* &amp;nbsp; &amp;nbsp; &amp;nbsp; &amp;nbsp; &amp;nbsp; &amp;nbsp; &amp;nbsp;player::removeCardFromHand(card)&lt;/div&gt;&lt;div&gt;&amp;nbsp;* &amp;nbsp; &amp;nbsp; &amp;nbsp; &amp;nbsp; &amp;nbsp; &amp;nbsp; &amp;nbsp;player::getManuscript().setCard(resourceFrontFace, position)&lt;/div&gt;&lt;div&gt;&amp;nbsp;*&lt;/div&gt;&lt;div&gt;&lt;br&gt;&lt;/div&gt;&lt;div&gt;&amp;nbsp;* &amp;nbsp;3.2: CONTROLLO EFFETTI CARTA&lt;/div&gt;&lt;div&gt;&amp;nbsp;* &amp;nbsp; &amp;nbsp; &amp;nbsp; &amp;nbsp; &amp;nbsp;evaluate effects of move&lt;/div&gt;&lt;div&gt;&amp;nbsp;* &amp;nbsp; &amp;nbsp; &amp;nbsp; &amp;nbsp; &amp;nbsp;player::addPoints(points)&lt;/div&gt;&lt;div&gt;&amp;nbsp;*&lt;/div&gt;&lt;div&gt;&amp;nbsp;* &amp;nbsp; &amp;nbsp; &amp;nbsp; &amp;nbsp; &amp;nbsp;notify(Event.cardPlacement, carta, posizione e punti e se proprio devo, giocatroie)&lt;/div&gt;&lt;div&gt;&amp;nbsp;*&lt;/div&gt;&lt;div&gt;&amp;nbsp;* &amp;nbsp;3.4: PLAYER SCEGLIE LA CARTA DA PESCARE -&amp;gt; RICEVI DATI&lt;/div&gt;&lt;div&gt;&amp;nbsp;* &amp;nbsp; &amp;nbsp; &amp;nbsp; &amp;nbsp; &amp;nbsp;player::addCardToHand(deck.popCard())&lt;/div&gt;&lt;div&gt;&amp;nbsp;* &amp;nbsp;3.5: RIGENERA LA CARTA PESCATA &amp;amp; AGGIORNA STATO -&amp;gt; INVIA DATI&lt;/div&gt;&lt;div&gt;&amp;nbsp;* &amp;nbsp; &amp;nbsp; &amp;nbsp; &amp;nbsp;deck::moveCardToBoard(deckPosition)&lt;/div&gt;&lt;div&gt;&amp;nbsp;* &amp;nbsp; &amp;nbsp; &amp;nbsp; &amp;nbsp;notify(Event.drawCard, carta pescata )&lt;/div&gt;&lt;div&gt;&amp;nbsp;*&lt;/div&gt;&lt;div&gt;&amp;nbsp;*&lt;/div&gt;&lt;div&gt;&amp;nbsp;*&lt;/div&gt;&lt;div&gt;&amp;nbsp;* &amp;nbsp;3.6: FINE TURNO&lt;/div&gt;&lt;div&gt;&amp;nbsp;* &amp;nbsp; &amp;nbsp; &amp;nbsp; &amp;nbsp; &amp;nbsp;saveData()&lt;/div&gt;&lt;div&gt;&amp;nbsp;* &amp;nbsp; &amp;nbsp; &amp;nbsp; &amp;nbsp; } catch (Exception TimeoutException) {&lt;/div&gt;&lt;div&gt;&amp;nbsp;* &amp;nbsp; &amp;nbsp; &amp;nbsp; &amp;nbsp; &amp;nbsp; &amp;nbsp; &amp;nbsp; &amp;nbsp;notify(Event.timeout, )&lt;/div&gt;&lt;div&gt;&amp;nbsp;* &amp;nbsp; &amp;nbsp; &amp;nbsp; &amp;nbsp; &amp;nbsp; &amp;nbsp; &amp;nbsp; &amp;nbsp;skipTurn()&lt;/div&gt;&lt;div&gt;&amp;nbsp;* &amp;nbsp; &amp;nbsp; &amp;nbsp; &amp;nbsp; }&lt;/div&gt;&lt;div&gt;&amp;nbsp;* &amp;nbsp;&amp;lt;p&amp;gt;&lt;/div&gt;&lt;div&gt;&amp;nbsp;* &amp;nbsp;FASE 4: FINE PARTITA&lt;/div&gt;&lt;div&gt;&amp;nbsp;* &amp;nbsp; &amp;nbsp; &amp;nbsp; &amp;nbsp; setEndGamePhase()&lt;/div&gt;&lt;div&gt;&amp;nbsp;* &amp;nbsp; &amp;nbsp; &amp;nbsp; &amp;nbsp; notify(Event.endGamePhase,)&lt;/div&gt;&lt;div&gt;&amp;nbsp;*&lt;/div&gt;&lt;div&gt;&amp;nbsp;*&lt;/div&gt;&lt;div&gt;&amp;nbsp;* &amp;nbsp;4.1: CALCOLA PUNTEGGIO OBBIETTIVI &amp;amp; CLASSIFICA&lt;/div&gt;&lt;div&gt;&amp;nbsp;* &amp;nbsp; &amp;nbsp; &amp;nbsp; &amp;nbsp; &amp;nbsp;notify(Event.gameOver, )&lt;/div&gt;&lt;div&gt;&amp;nbsp;* &amp;nbsp; &amp;nbsp; &amp;nbsp; &amp;nbsp; calculate all objective cards&lt;/div&gt;&lt;div&gt;&amp;nbsp;* &amp;nbsp; &amp;nbsp; &amp;nbsp; &amp;nbsp; update points&lt;/div&gt;&lt;div&gt;&amp;nbsp;* &amp;nbsp; &amp;nbsp; &amp;nbsp; &amp;nbsp; sort player by points&lt;/div&gt;&lt;div&gt;&amp;nbsp;* &amp;nbsp; &amp;nbsp; &amp;nbsp; &amp;nbsp; notify(Event.leaderboard, )&lt;/div&gt;&lt;div&gt;&amp;nbsp;*&lt;/div&gt;&lt;div&gt;&amp;nbsp;* &amp;nbsp;&amp;lt;p&amp;gt;&lt;/div&gt;&lt;div&gt;&amp;nbsp;* &amp;nbsp;FASE 5: NUOVA PARTITA / TERMINA&lt;/div&gt;&lt;div&gt;&amp;nbsp;* &amp;nbsp; &amp;nbsp; &amp;nbsp; &amp;nbsp; &amp;nbsp;clear all variables for reset&lt;/div&gt;&lt;div&gt;*/&lt;/div&gt;&lt;/div&gt;&lt;div&gt;Questo è circa il flusso di azioni che avvengono nella partita&lt;/div&gt;" style="text;html=1;align=center;verticalAlign=middle;resizable=0;points=[];autosize=1;strokeColor=none;fillColor=none;" parent="1" vertex="1">
          <mxGeometry x="-1070" y="-170" width="800" height="1510" as="geometry" />
        </mxCell>
        <mxCell id="sNemiut326uwsuaX65BH-10" value="&lt;p style=&quot;margin:0px;margin-top:4px;text-align:center;&quot;&gt;&lt;i&gt;&amp;lt;&amp;lt;enumeration&amp;gt;&amp;gt;&lt;/i&gt;&lt;br&gt;&lt;b&gt;Action&lt;/b&gt;&lt;/p&gt;&lt;hr size=&quot;1&quot;&gt;&lt;p style=&quot;margin:0 0 0 4px;line-height:1.6;&quot;&gt;+ SECRET_ACHIEVEMENT_CHOICE&lt;/p&gt;&lt;p style=&quot;margin:0 0 0 4px;line-height:1.6;&quot;&gt;+ STARTING_CARD_CHOICE&lt;/p&gt;&lt;p style=&quot;margin:0 0 0 4px;line-height:1.6;&quot;&gt;+ PLAY_CARD&lt;/p&gt;&lt;p style=&quot;margin:0 0 0 4px;line-height:1.6;&quot;&gt;+ DRAW_CARD&lt;/p&gt;" style="verticalAlign=top;align=left;overflow=fill;fontSize=14;fontFamily=Helvetica;html=1;rounded=0;shadow=0;comic=0;labelBackgroundColor=none;strokeWidth=1;" parent="1" vertex="1">
          <mxGeometry x="710" y="800" width="247" height="141" as="geometry" />
        </mxCell>
        <mxCell id="sNemiut326uwsuaX65BH-11" value="1" style="endArrow=open;html=1;endSize=12;startArrow=diamondThin;startSize=14;startFill=1;edgeStyle=orthogonalEdgeStyle;align=left;verticalAlign=bottom;rounded=0;exitX=1.019;exitY=0.83;exitDx=0;exitDy=0;exitPerimeter=0;entryX=0;entryY=0.389;entryDx=0;entryDy=0;entryPerimeter=0;" parent="1" source="node19" target="node38" edge="1">
          <mxGeometry x="-1" y="3" relative="1" as="geometry">
            <mxPoint x="2750" y="1610" as="sourcePoint" />
            <mxPoint x="2860" y="1800" as="targetPoint" />
          </mxGeometry>
        </mxCell>
        <mxCell id="sNemiut326uwsuaX65BH-12" value="1" style="endArrow=open;html=1;endSize=12;startArrow=diamondThin;startSize=14;startFill=1;edgeStyle=orthogonalEdgeStyle;align=left;verticalAlign=bottom;rounded=0;" parent="1" edge="1">
          <mxGeometry x="-1" y="3" relative="1" as="geometry">
            <mxPoint x="3110" y="2310" as="sourcePoint" />
            <mxPoint x="3118" y="2430" as="targetPoint" />
            <Array as="points">
              <mxPoint x="3120" y="2310" />
              <mxPoint x="3120" y="2360" />
              <mxPoint x="3118" y="2360" />
            </Array>
          </mxGeometry>
        </mxCell>
        <mxCell id="9KymC1qPvBBmJe6Dn9mO-1" value="" style="endArrow=open;endFill=1;endSize=12;html=1;rounded=0;exitX=0.5;exitY=1;exitDx=0;exitDy=0;entryX=0.5;entryY=0;entryDx=0;entryDy=0;" parent="1" source="node10" target="node25" edge="1">
          <mxGeometry width="160" relative="1" as="geometry">
            <mxPoint x="1930" y="2510" as="sourcePoint" />
            <mxPoint x="1420" y="3050" as="targetPoint" />
            <Array as="points">
              <mxPoint x="2070" y="3000" />
              <mxPoint x="1185" y="3000" />
            </Array>
          </mxGeometry>
        </mxCell>
        <mxCell id="9KymC1qPvBBmJe6Dn9mO-2" value="" style="endArrow=open;endFill=1;endSize=12;html=1;rounded=0;entryX=0.586;entryY=0.012;entryDx=0;entryDy=0;entryPerimeter=0;" parent="1" target="node30" edge="1">
          <mxGeometry width="160" relative="1" as="geometry">
            <mxPoint x="1600" y="3000" as="sourcePoint" />
            <mxPoint x="1860" y="2900" as="targetPoint" />
          </mxGeometry>
        </mxCell>
        <mxCell id="9KymC1qPvBBmJe6Dn9mO-3" value="" style="endArrow=open;endFill=1;endSize=12;html=1;rounded=0;entryX=0.482;entryY=0.004;entryDx=0;entryDy=0;entryPerimeter=0;" parent="1" edge="1" target="node3">
          <mxGeometry width="160" relative="1" as="geometry">
            <mxPoint x="2000" y="3000" as="sourcePoint" />
            <mxPoint x="2000" y="3170" as="targetPoint" />
          </mxGeometry>
        </mxCell>
        <mxCell id="9KymC1qPvBBmJe6Dn9mO-4" value="" style="endArrow=open;endFill=1;endSize=12;html=1;rounded=0;entryX=1;entryY=0.5;entryDx=0;entryDy=0;exitX=-0.008;exitY=0.553;exitDx=0;exitDy=0;exitPerimeter=0;" parent="1" source="node33" target="node41" edge="1">
          <mxGeometry width="160" relative="1" as="geometry">
            <mxPoint x="1510" y="2350" as="sourcePoint" />
            <mxPoint x="1670" y="2350" as="targetPoint" />
          </mxGeometry>
        </mxCell>
        <mxCell id="e4n40jZnsEpr_el7aGOP-1" value="" style="endArrow=block;dashed=1;endFill=0;endSize=12;html=1;rounded=0;entryX=0.386;entryY=1.019;entryDx=0;entryDy=0;entryPerimeter=0;" edge="1" parent="1" target="node33">
          <mxGeometry width="160" relative="1" as="geometry">
            <mxPoint x="1550" y="3170" as="sourcePoint" />
            <mxPoint x="1760" y="3100" as="targetPoint" />
          </mxGeometry>
        </mxCell>
        <mxCell id="e4n40jZnsEpr_el7aGOP-2" value="" style="endArrow=block;dashed=1;endFill=0;endSize=12;html=1;rounded=0;exitX=0.367;exitY=-0.002;exitDx=0;exitDy=0;exitPerimeter=0;entryX=0.869;entryY=1.006;entryDx=0;entryDy=0;entryPerimeter=0;" edge="1" parent="1" source="node3" target="node33">
          <mxGeometry width="160" relative="1" as="geometry">
            <mxPoint x="1810" y="3090" as="sourcePoint" />
            <mxPoint x="1958" y="2820" as="targetPoint" />
            <Array as="points">
              <mxPoint x="1958" y="2840" />
              <mxPoint x="1719" y="2840" />
            </Array>
          </mxGeometry>
        </mxCell>
        <mxCell id="e4n40jZnsEpr_el7aGOP-3" value="" style="endArrow=block;dashed=1;endFill=0;endSize=12;html=1;rounded=0;entryX=0.167;entryY=1.021;entryDx=0;entryDy=0;entryPerimeter=0;" edge="1" parent="1" target="node33">
          <mxGeometry width="160" relative="1" as="geometry">
            <mxPoint x="1280" y="3160" as="sourcePoint" />
            <mxPoint x="1600" y="3000" as="targetPoint" />
            <Array as="points">
              <mxPoint x="1280" y="2840" />
              <mxPoint x="1480" y="2840" />
            </Array>
          </mxGeometry>
        </mxCell>
        <mxCell id="e4n40jZnsEpr_el7aGOP-4" value="" style="endArrow=block;dashed=1;endFill=0;endSize=12;html=1;rounded=0;exitX=1.004;exitY=0.54;exitDx=0;exitDy=0;exitPerimeter=0;" edge="1" parent="1" source="node35">
          <mxGeometry width="160" relative="1" as="geometry">
            <mxPoint x="470" y="2550" as="sourcePoint" />
            <mxPoint x="690" y="2740" as="targetPoint" />
            <Array as="points">
              <mxPoint x="550" y="2550" />
              <mxPoint x="550" y="2740" />
            </Array>
          </mxGeometry>
        </mxCell>
        <mxCell id="e4n40jZnsEpr_el7aGOP-5" value="" style="endArrow=block;dashed=1;endFill=0;endSize=12;html=1;rounded=0;exitX=1.008;exitY=0.557;exitDx=0;exitDy=0;exitPerimeter=0;" edge="1" parent="1" source="node27">
          <mxGeometry width="160" relative="1" as="geometry">
            <mxPoint x="380" y="2760" as="sourcePoint" />
            <mxPoint x="690" y="2740" as="targetPoint" />
            <Array as="points">
              <mxPoint x="550" y="2885" />
              <mxPoint x="550" y="2740" />
            </Array>
          </mxGeometry>
        </mxCell>
        <mxCell id="e4n40jZnsEpr_el7aGOP-6" value="" style="endArrow=block;dashed=1;endFill=0;endSize=12;html=1;rounded=0;" edge="1" parent="1">
          <mxGeometry width="160" relative="1" as="geometry">
            <mxPoint x="444" y="3215" as="sourcePoint" />
            <mxPoint x="690" y="2740" as="targetPoint" />
            <Array as="points">
              <mxPoint x="550" y="3215" />
              <mxPoint x="550" y="2740" />
            </Array>
          </mxGeometry>
        </mxCell>
        <mxCell id="e4n40jZnsEpr_el7aGOP-7" value="" style="endArrow=open;endFill=1;endSize=12;html=1;rounded=0;" edge="1" parent="1">
          <mxGeometry width="160" relative="1" as="geometry">
            <mxPoint x="680" y="2715" as="sourcePoint" />
            <mxPoint x="-485" y="2440" as="targetPoint" />
            <Array as="points">
              <mxPoint x="600" y="2715" />
              <mxPoint x="600" y="2095" />
              <mxPoint x="-485" y="2095" />
            </Array>
          </mxGeometry>
        </mxCell>
        <mxCell id="e4n40jZnsEpr_el7aGOP-8" value="" style="endArrow=open;endFill=1;endSize=12;html=1;rounded=0;entryX=0.5;entryY=0;entryDx=0;entryDy=0;" edge="1" parent="1" target="node5">
          <mxGeometry width="160" relative="1" as="geometry">
            <mxPoint x="680" y="2700" as="sourcePoint" />
            <mxPoint x="70" y="2380" as="targetPoint" />
            <Array as="points">
              <mxPoint x="620" y="2700" />
              <mxPoint x="620" y="2080" />
              <mxPoint x="-1319" y="2080" />
            </Array>
          </mxGeometry>
        </mxCell>
        <mxCell id="e4n40jZnsEpr_el7aGOP-9" value="" style="endArrow=open;endFill=1;endSize=12;html=1;rounded=0;entryX=1;entryY=0.75;entryDx=0;entryDy=0;exitX=0.5;exitY=1;exitDx=0;exitDy=0;" edge="1" parent="1" source="node30" target="node40">
          <mxGeometry width="160" relative="1" as="geometry">
            <mxPoint x="420" y="2900" as="sourcePoint" />
            <mxPoint x="580" y="2900" as="targetPoint" />
            <Array as="points">
              <mxPoint x="1570" y="3600" />
              <mxPoint x="520" y="3600" />
              <mxPoint x="520" y="2263" />
            </Array>
          </mxGeometry>
        </mxCell>
        <mxCell id="e4n40jZnsEpr_el7aGOP-10" value="" style="endArrow=none;html=1;rounded=0;" edge="1" parent="1">
          <mxGeometry width="50" height="50" relative="1" as="geometry">
            <mxPoint x="1180" y="3600" as="sourcePoint" />
            <mxPoint x="1180" y="3510" as="targetPoint" />
          </mxGeometry>
        </mxCell>
        <mxCell id="e4n40jZnsEpr_el7aGOP-11" value="" style="endArrow=none;html=1;rounded=0;entryX=0.5;entryY=1;entryDx=0;entryDy=0;" edge="1" parent="1" target="node3">
          <mxGeometry width="50" height="50" relative="1" as="geometry">
            <mxPoint x="1570" y="3600" as="sourcePoint" />
            <mxPoint x="2000" y="3600" as="targetPoint" />
            <Array as="points">
              <mxPoint x="2007" y="3600" />
            </Array>
          </mxGeometry>
        </mxCell>
        <mxCell id="e4n40jZnsEpr_el7aGOP-12" value="" style="endArrow=open;endFill=1;endSize=12;html=1;rounded=0;" edge="1" parent="1">
          <mxGeometry width="160" relative="1" as="geometry">
            <mxPoint x="520" y="3280" as="sourcePoint" />
            <mxPoint x="440" y="3280" as="targetPoint" />
          </mxGeometry>
        </mxCell>
        <mxCell id="e4n40jZnsEpr_el7aGOP-13" value="" style="endArrow=open;endFill=1;endSize=12;html=1;rounded=0;entryX=1.01;entryY=0.839;entryDx=0;entryDy=0;entryPerimeter=0;" edge="1" parent="1" target="node35">
          <mxGeometry width="160" relative="1" as="geometry">
            <mxPoint x="520" y="2609" as="sourcePoint" />
            <mxPoint x="460" y="2620" as="targetPoint" />
          </mxGeometry>
        </mxCell>
        <mxCell id="e4n40jZnsEpr_el7aGOP-14" value="Extends" style="endArrow=block;endSize=16;endFill=0;html=1;rounded=0;exitX=0.5;exitY=1;exitDx=0;exitDy=0;entryX=0.322;entryY=0.01;entryDx=0;entryDy=0;entryPerimeter=0;" edge="1" parent="1">
          <mxGeometry width="160" relative="1" as="geometry">
            <mxPoint x="-1.5" y="2300.9999999999995" as="sourcePoint" />
            <mxPoint x="-0.7799999999997453" y="2451.9000000000005" as="targetPoint" />
          </mxGeometry>
        </mxCell>
        <mxCell id="e4n40jZnsEpr_el7aGOP-15" value="" style="endArrow=open;endFill=1;endSize=12;html=1;rounded=0;entryX=1;entryY=0.75;entryDx=0;entryDy=0;" edge="1" parent="1" target="node27">
          <mxGeometry width="160" relative="1" as="geometry">
            <mxPoint x="520" y="2917" as="sourcePoint" />
            <mxPoint x="590" y="3040" as="targetPoint" />
          </mxGeometry>
        </mxCell>
        <mxCell id="e4n40jZnsEpr_el7aGOP-16" value="" style="endArrow=open;endFill=1;endSize=12;html=1;rounded=0;exitX=0;exitY=0.5;exitDx=0;exitDy=0;entryX=1.001;entryY=0.54;entryDx=0;entryDy=0;entryPerimeter=0;" edge="1" parent="1" source="node40" target="node31">
          <mxGeometry width="160" relative="1" as="geometry">
            <mxPoint x="-210" y="2560" as="sourcePoint" />
            <mxPoint x="-50" y="2560" as="targetPoint" />
            <Array as="points">
              <mxPoint x="-200" y="2226" />
              <mxPoint x="-200" y="2629" />
            </Array>
          </mxGeometry>
        </mxCell>
        <mxCell id="e4n40jZnsEpr_el7aGOP-17" value="" style="endArrow=open;endFill=1;endSize=12;html=1;rounded=0;" edge="1" parent="1">
          <mxGeometry width="160" relative="1" as="geometry">
            <mxPoint x="-161" y="2200" as="sourcePoint" />
            <mxPoint x="-1420" y="2400" as="targetPoint" />
            <Array as="points">
              <mxPoint x="-1420" y="2200" />
            </Array>
          </mxGeometry>
        </mxCell>
        <mxCell id="e4n40jZnsEpr_el7aGOP-18" value="" style="endArrow=none;html=1;rounded=0;" edge="1" parent="1">
          <mxGeometry width="50" height="50" relative="1" as="geometry">
            <mxPoint x="-1810" y="2200" as="sourcePoint" />
            <mxPoint x="-1420" y="2200" as="targetPoint" />
            <Array as="points" />
          </mxGeometry>
        </mxCell>
        <mxCell id="e4n40jZnsEpr_el7aGOP-19" value="" style="endArrow=open;endFill=1;endSize=12;html=1;rounded=0;entryX=1.001;entryY=0.398;entryDx=0;entryDy=0;entryPerimeter=0;" edge="1" parent="1" target="node37">
          <mxGeometry width="160" relative="1" as="geometry">
            <mxPoint x="-1810" y="2200" as="sourcePoint" />
            <mxPoint x="-2160" y="2449" as="targetPoint" />
            <Array as="points">
              <mxPoint x="-1810" y="2560" />
            </Array>
          </mxGeometry>
        </mxCell>
        <mxCell id="e4n40jZnsEpr_el7aGOP-20" value="" style="endArrow=open;endFill=1;endSize=12;html=1;rounded=0;entryX=1.007;entryY=0.169;entryDx=0;entryDy=0;entryPerimeter=0;" edge="1" parent="1" target="node2">
          <mxGeometry width="160" relative="1" as="geometry">
            <mxPoint x="-950" y="2200" as="sourcePoint" />
            <mxPoint x="-1070" y="2780" as="targetPoint" />
            <Array as="points">
              <mxPoint x="-950" y="3000" />
            </Array>
          </mxGeometry>
        </mxCell>
        <mxCell id="e4n40jZnsEpr_el7aGOP-22" value="" style="endArrow=none;html=1;rounded=0;entryX=-0.004;entryY=0.637;entryDx=0;entryDy=0;entryPerimeter=0;" edge="1" parent="1" target="node35">
          <mxGeometry width="50" height="50" relative="1" as="geometry">
            <mxPoint x="-200" y="2571" as="sourcePoint" />
            <mxPoint x="-790" y="2680" as="targetPoint" />
          </mxGeometry>
        </mxCell>
        <mxCell id="e4n40jZnsEpr_el7aGOP-23" value="" style="endArrow=none;html=1;rounded=0;entryX=0;entryY=0.25;entryDx=0;entryDy=0;" edge="1" parent="1" target="node35">
          <mxGeometry width="50" height="50" relative="1" as="geometry">
            <mxPoint x="-950" y="2240" as="sourcePoint" />
            <mxPoint x="-450" y="2530" as="targetPoint" />
            <Array as="points">
              <mxPoint x="-180" y="2240" />
              <mxPoint x="-180" y="2497" />
            </Array>
          </mxGeometry>
        </mxCell>
        <mxCell id="e4n40jZnsEpr_el7aGOP-24" value="" style="endArrow=open;endFill=1;endSize=12;html=1;rounded=0;entryX=1.002;entryY=0.272;entryDx=0;entryDy=0;exitX=0;exitY=0.5;exitDx=0;exitDy=0;entryPerimeter=0;" edge="1" parent="1" source="node35" target="node24">
          <mxGeometry width="160" relative="1" as="geometry">
            <mxPoint x="-660" y="2600" as="sourcePoint" />
            <mxPoint x="-1600" y="3010" as="targetPoint" />
            <Array as="points">
              <mxPoint x="-240" y="2545" />
              <mxPoint x="-240" y="2280" />
              <mxPoint x="-1560" y="2280" />
              <mxPoint x="-1560" y="2930" />
            </Array>
          </mxGeometry>
        </mxCell>
        <mxCell id="e4n40jZnsEpr_el7aGOP-25" value="" style="endArrow=open;endFill=1;endSize=12;html=1;rounded=0;entryX=0.682;entryY=-0.003;entryDx=0;entryDy=0;entryPerimeter=0;" edge="1" parent="1" target="node5">
          <mxGeometry width="160" relative="1" as="geometry">
            <mxPoint x="-1250" y="2200" as="sourcePoint" />
            <mxPoint x="-690" y="2650" as="targetPoint" />
          </mxGeometry>
        </mxCell>
        <mxCell id="e4n40jZnsEpr_el7aGOP-27" value="" style="endArrow=open;endFill=1;endSize=12;html=1;rounded=0;entryX=1.012;entryY=0.434;entryDx=0;entryDy=0;entryPerimeter=0;" edge="1" parent="1">
          <mxGeometry width="160" relative="1" as="geometry">
            <mxPoint x="-160" y="2840" as="sourcePoint" />
            <mxPoint x="-2575.32" y="2039.676" as="targetPoint" />
            <Array as="points">
              <mxPoint x="-223" y="2840" />
              <mxPoint x="-223" y="2040" />
            </Array>
          </mxGeometry>
        </mxCell>
        <mxCell id="e4n40jZnsEpr_el7aGOP-28" value="" style="endArrow=open;endFill=1;endSize=12;html=1;rounded=0;entryX=1;entryY=0.25;entryDx=0;entryDy=0;exitX=-0.001;exitY=0.633;exitDx=0;exitDy=0;exitPerimeter=0;" edge="1" parent="1" source="node27" target="node6">
          <mxGeometry width="160" relative="1" as="geometry">
            <mxPoint x="-890" y="2810" as="sourcePoint" />
            <mxPoint x="-730" y="2810" as="targetPoint" />
            <Array as="points">
              <mxPoint x="-200" y="2897" />
              <mxPoint x="-200" y="3016" />
            </Array>
          </mxGeometry>
        </mxCell>
        <mxCell id="e4n40jZnsEpr_el7aGOP-29" value="" style="endArrow=open;endFill=1;endSize=12;html=1;rounded=0;exitX=0;exitY=0.5;exitDx=0;exitDy=0;entryX=1;entryY=0.5;entryDx=0;entryDy=0;" edge="1" parent="1" source="node9" target="node36">
          <mxGeometry width="160" relative="1" as="geometry">
            <mxPoint x="-130" y="2850" as="sourcePoint" />
            <mxPoint x="-1250" y="3370" as="targetPoint" />
            <Array as="points">
              <mxPoint x="-240" y="3210" />
              <mxPoint x="-240" y="3420" />
            </Array>
          </mxGeometry>
        </mxCell>
        <mxCell id="e4n40jZnsEpr_el7aGOP-30" value="" style="endArrow=open;endFill=1;endSize=12;html=1;rounded=0;entryX=1.001;entryY=0.454;entryDx=0;entryDy=0;entryPerimeter=0;" edge="1" parent="1" target="node5">
          <mxGeometry width="160" relative="1" as="geometry">
            <mxPoint x="-1000" y="3420" as="sourcePoint" />
            <mxPoint x="-680" y="3090" as="targetPoint" />
            <Array as="points">
              <mxPoint x="-1000" y="2596" />
            </Array>
          </mxGeometry>
        </mxCell>
      </root>
    </mxGraphModel>
  </diagram>
</mxfile>
